<svg width="349" height="349" viewBox="0 0 349 349" fill="none" xmlns="http://www.w3.org/2000/svg">
<path d="M349 266.915H0V267.09H349V266.915Z" fill="#EBEBEB"/>
<path d="M314.03 278.146H290.912V278.32H314.03V278.146Z" fill="#EBEBEB"/>
<path d="M231.192 280.045H225.126V280.219H231.192V280.045Z" fill="#EBEBEB"/>
<path d="M290.214 271.669H276.82V271.843H290.214V271.669Z" fill="#EBEBEB"/>
<path d="M66.7637 272.841H36.6171V273.016H66.7637V272.841Z" fill="#EBEBEB"/>
<path d="M77.4013 272.841H72.9829V273.016H77.4013V272.841Z" fill="#EBEBEB"/>
<path d="M157.155 275.787H91.7661V275.961H157.155V275.787Z" fill="#EBEBEB"/>
<path d="M165.426 235.784H30.6491C29.5933 235.783 28.5813 235.362 27.8354 234.615C27.0895 233.867 26.6705 232.855 26.6705 231.799V42.3407C26.6797 41.2909 27.1027 40.2871 27.8477 39.5474C28.5926 38.8077 29.5993 38.3918 30.6491 38.39H165.426C166.483 38.39 167.497 38.8099 168.244 39.5573C168.992 40.3048 169.412 41.3185 169.412 42.3756V231.799C169.412 232.856 168.992 233.87 168.244 234.617C167.497 235.365 166.483 235.784 165.426 235.784ZM30.6491 38.5296C29.6396 38.5314 28.672 38.9338 27.9588 39.6483C27.2456 40.3628 26.845 41.3311 26.845 42.3407V231.799C26.845 232.808 27.2456 233.777 27.9588 234.491C28.672 235.206 29.6396 235.608 30.6491 235.61H165.426C166.436 235.608 167.404 235.206 168.119 234.492C168.833 233.777 169.235 232.809 169.237 231.799V42.3407C169.235 41.3305 168.833 40.3622 168.119 39.6479C167.404 38.9336 166.436 38.5314 165.426 38.5296H30.6491Z" fill="#EBEBEB"/>
<path d="M316.41 235.784H181.627C180.57 235.783 179.557 235.362 178.81 234.615C178.063 233.868 177.643 232.855 177.641 231.799V42.3407C177.652 41.2903 178.077 40.2865 178.823 39.547C179.569 38.8075 180.576 38.3918 181.627 38.39H316.41C317.459 38.3936 318.464 38.8104 319.207 39.5499C319.951 40.2894 320.373 41.2921 320.382 42.3407V231.799C320.382 232.853 319.964 233.865 319.22 234.612C318.475 235.359 317.465 235.781 316.41 235.784ZM181.627 38.5296C180.616 38.5314 179.648 38.9336 178.934 39.6479C178.219 40.3622 177.817 41.3305 177.815 42.3407V231.799C177.817 232.809 178.219 233.777 178.934 234.492C179.648 235.206 180.616 235.608 181.627 235.61H316.41C317.421 235.608 318.389 235.206 319.103 234.492C319.817 233.777 320.22 232.809 320.221 231.799V42.3407C320.22 41.3305 319.817 40.3622 319.103 39.6479C318.389 38.9336 317.421 38.5314 316.41 38.5296H181.627Z" fill="#EBEBEB"/>
<path d="M230.744 85.8014C237.163 79.382 237.163 68.974 230.744 62.5546C224.324 56.1352 213.917 56.1353 207.497 62.5546C201.078 68.974 201.078 79.3819 207.497 85.8013C213.917 92.2207 224.324 92.2208 230.744 85.8014Z" fill="#E0E0E0"/>
<path d="M226.799 85.8594C233.252 81.6201 235.048 72.9518 230.808 66.4982C226.569 60.0445 217.901 58.2494 211.447 62.4887C204.993 66.7279 203.198 75.3962 207.438 81.8499C211.677 88.3035 220.345 90.0987 226.799 85.8594Z" fill="#F0F0F0"/>
<path d="M219.779 64.5929V74.3649L226.257 70.7004" fill="#F0F0F0"/>
<path d="M219.779 75.0629C219.594 75.0629 219.417 74.9894 219.286 74.8585C219.155 74.7276 219.081 74.55 219.081 74.3649V64.5929C219.081 64.4078 219.155 64.2303 219.286 64.0994C219.417 63.9685 219.594 63.8949 219.779 63.8949C219.964 63.8949 220.142 63.9685 220.273 64.0994C220.404 64.2303 220.477 64.4078 220.477 64.5929V73.1644L225.915 70.0932C226.075 70.0022 226.265 69.9782 226.443 70.0266C226.62 70.075 226.772 70.1918 226.864 70.3514C226.91 70.4315 226.939 70.5199 226.951 70.6114C226.962 70.703 226.956 70.796 226.931 70.8849C226.906 70.9738 226.864 71.057 226.807 71.1295C226.75 71.2021 226.679 71.2627 226.599 71.3077L220.121 74.9722C220.016 75.0299 219.899 75.0611 219.779 75.0629Z" fill="#E0E0E0"/>
<path d="M154.021 86.2728H57.592V172.587H154.021V86.2728Z" fill="#E6E6E6"/>
<path d="M150.51 89.693H60.6003V169.349H150.51V89.693Z" fill="#F0F0F0"/>
<path d="M89.8885 89.693L73.6809 169.349H65.3887L81.5543 89.693H89.8885Z" fill="#FAFAFA"/>
<path d="M96.7498 89.693L80.5562 169.349H77.499L93.6995 89.693H96.7498Z" fill="#FAFAFA"/>
<path d="M133.095 110.668L121.166 169.349H118.109L133.095 95.6469V110.668Z" fill="#FAFAFA"/>
<path d="M123.79 89.693H132.013L115.938 169.349H107.604L123.79 89.693Z" fill="#FAFAFA"/>
<path d="M105.845 86.2728H103.737V172.587H105.845V86.2728Z" fill="#E6E6E6"/>
<path d="M298.744 61.1239H252.236V89.693H298.744V61.1239Z" fill="#E6E6E6"/>
<path d="M295.421 63.7274H255.559V87.0825H295.421V63.7274Z" fill="#FAFAFA"/>
<path d="M291.268 68.1457H259.705V69.1858H291.268V68.1457Z" fill="#E6E6E6"/>
<path d="M291.268 71.5939H259.705V72.6339H291.268V71.5939Z" fill="#E6E6E6"/>
<path d="M291.268 78.183H259.705V79.223H291.268V78.183Z" fill="#E6E6E6"/>
<path d="M291.268 81.6311H259.705V82.6711H291.268V81.6311Z" fill="#E6E6E6"/>
<path d="M174.5 298.437C249.244 298.437 309.835 294.899 309.835 290.535C309.835 286.172 249.244 282.634 174.5 282.634C99.7564 282.634 39.1648 286.172 39.1648 290.535C39.1648 294.899 99.7564 298.437 174.5 298.437Z" fill="#F5F5F5"/>
<path d="M239.896 141.603C239.896 141.603 238.988 144.87 239.896 146.022C240.307 146.538 242.688 146.72 243.295 146.308C244.454 145.554 244.132 142.224 244.132 142.224L239.896 141.603Z" fill="#263238"/>
<path d="M269.33 143.244C269.33 143.244 248.998 145.372 237.529 143.244C237.7 141.793 238.038 140.366 238.535 138.993C238.624 138.788 238.732 138.592 238.856 138.406C239.135 138.045 239.5 137.757 239.917 137.569L240.224 137.422C241.188 137.032 242.196 136.757 243.225 136.606C243.225 136.606 245.019 132.822 245.124 132.711C246.192 131.489 262.65 131.901 264.486 133.876C264.877 134.295 266.58 136.948 266.58 136.948C266.58 136.948 269.163 136.808 269.372 137.387C269.993 138.986 269.33 143.244 269.33 143.244Z" fill="#FCA43C"/>
<path d="M243.784 136.64C247.896 136.528 252.011 136.647 256.11 136.996C256.11 136.996 256.173 134.1 256.278 133.723C256.382 133.346 250.75 132.843 249.758 132.864C248.202 132.825 246.645 132.912 245.103 133.123C244.5 134.227 244.056 135.412 243.784 136.64Z" fill="white"/>
<path d="M258.679 144.039C258.679 145.596 257.743 146.831 256.585 146.831C255.426 146.831 254.491 145.568 254.491 144.039C254.491 142.511 255.426 141.247 256.585 141.247C257.743 141.247 258.679 142.483 258.679 144.039Z" fill="#263238"/>
<path opacity="0.2" d="M258.302 143.928C258.302 144.87 257.737 145.631 257.045 145.631C256.354 145.631 255.782 144.87 255.782 143.928C255.782 142.985 256.347 142.224 257.045 142.224C257.743 142.224 258.302 142.985 258.302 143.928Z" fill="white"/>
<path d="M254.533 143.627C254.26 144.151 252.641 144.179 252.641 144.179C252.641 144.179 252.725 145.77 253.716 146.468C254.707 147.166 256.599 146.859 256.599 146.859L254.533 143.627Z" fill="#263238"/>
<path d="M268.311 143.593C268.311 145.149 267.383 146.385 266.217 146.385C265.052 146.385 264.123 145.128 264.123 143.593C264.123 142.057 265.052 140.801 266.217 140.801C267.383 140.801 268.311 142.036 268.311 143.593Z" fill="#263238"/>
<path opacity="0.2" d="M267.941 143.481C267.941 144.423 267.376 145.184 266.678 145.184C265.98 145.184 265.422 144.423 265.422 143.481C265.422 142.539 265.987 141.778 266.678 141.778C267.369 141.778 267.941 142.539 267.941 143.481Z" fill="white"/>
<path d="M264.172 143.174C263.9 143.704 262.273 143.732 262.273 143.732C262.273 143.732 262.357 145.324 263.355 146.022C264.354 146.72 266.231 146.406 266.231 146.406L264.172 143.174Z" fill="#263238"/>
<path d="M237.732 141.952L237.132 142.49C237.132 142.49 237.348 144.954 237.732 145.072C238.116 145.191 249.598 146.036 250.701 145.889C251.691 145.786 252.66 145.527 253.569 145.121C253.904 144.87 253.569 142.881 253.569 142.881C251.495 143.25 249.394 143.453 247.287 143.488C244.691 143.432 238.765 143.39 238.346 142.881C238.105 142.597 237.898 142.285 237.732 141.952Z" fill="#FCA43C"/>
<path opacity="0.2" d="M256.082 137.178C251.845 137.373 250.024 139.188 250.024 139.188C250.024 139.188 240.203 139.188 240.063 138.595C240.014 138.197 240.069 137.792 240.224 137.422C241.188 137.032 242.196 136.757 243.225 136.606C241.829 137.066 241.669 137.569 241.669 137.569C242.175 137.214 242.755 136.975 243.365 136.871C246.973 136.599 256.082 137.178 256.082 137.178Z" fill="white"/>
<path d="M257.045 136.808C257.045 136.808 257.045 134.093 257.262 133.904C258.302 133.698 259.366 133.637 260.424 133.723C260.738 133.821 261.331 136.808 261.331 136.808H257.045Z" fill="white"/>
<path d="M261.987 136.808L261.192 133.723C261.192 133.723 264.284 133.723 264.528 134.086C264.772 134.449 266.231 136.996 266.231 136.996L261.987 136.808Z" fill="white"/>
<path opacity="0.7" d="M237.732 141.952L237.132 142.49C237.132 142.49 237.348 144.954 237.732 145.072C238.116 145.191 249.598 146.036 250.701 145.889C251.691 145.786 252.66 145.527 253.569 145.121C253.904 144.87 253.569 142.881 253.569 142.881C251.495 143.25 249.394 143.453 247.287 143.488C244.691 143.432 238.765 143.39 238.346 142.881C238.105 142.597 237.898 142.285 237.732 141.952Z" fill="white"/>
<path d="M239.121 140.089C239.086 140.263 238.981 140.396 238.883 140.375C238.786 140.354 238.737 140.193 238.772 140.019C238.807 139.844 238.911 139.719 239.009 139.74C239.107 139.761 239.156 139.914 239.121 140.089Z" fill="white"/>
<path opacity="0.4" d="M240.035 139.747L239.582 143.181L248.809 143.481L249.758 140.054L240.035 139.747Z" fill="white"/>
<path d="M249.312 143.355L252.536 143.048L253.213 138.916L250.568 139.167L249.312 143.355Z" fill="#FCA43C"/>
<path opacity="0.7" d="M249.312 143.355L252.536 143.048C252.934 141.443 253.625 139.46 253.234 138.916C252.803 138.754 252.341 138.693 251.883 138.736C251.424 138.78 250.982 138.927 250.589 139.167C250.156 139.816 249.73 141.694 249.312 143.355Z" fill="white"/>
<path d="M251.727 142.176C251.728 142.291 251.695 142.404 251.632 142.5C251.569 142.596 251.478 142.672 251.372 142.716C251.266 142.761 251.149 142.773 251.036 142.751C250.923 142.729 250.819 142.674 250.738 142.592C250.656 142.511 250.601 142.407 250.579 142.294C250.557 142.181 250.569 142.064 250.614 141.958C250.658 141.852 250.734 141.761 250.83 141.698C250.926 141.635 251.039 141.602 251.154 141.603C251.306 141.603 251.452 141.664 251.559 141.771C251.666 141.878 251.727 142.024 251.727 142.176Z" fill="white"/>
<path d="M251.908 140.647C251.908 140.733 251.875 140.815 251.815 140.877C251.755 140.938 251.673 140.973 251.587 140.975C251.522 140.976 251.458 140.958 251.403 140.923C251.348 140.888 251.305 140.837 251.279 140.777C251.253 140.718 251.246 140.651 251.258 140.587C251.269 140.523 251.3 140.464 251.346 140.418C251.391 140.371 251.45 140.339 251.514 140.326C251.577 140.313 251.644 140.319 251.704 140.343C251.764 140.368 251.816 140.41 251.852 140.464C251.889 140.518 251.908 140.582 251.908 140.647Z" fill="white"/>
<path opacity="0.7" d="M237.85 142.176L238.339 142.874L239.253 143.139C239.519 141.457 240.056 139.181 239.714 138.804C239.372 138.427 239.212 138.281 238.856 138.399L238.534 138.986C238.152 140.01 237.921 141.085 237.85 142.176Z" fill="white"/>
<path d="M239.079 141.694C239.079 142.008 238.898 142.259 238.716 142.245C238.535 142.231 238.416 141.959 238.437 141.645C238.458 141.331 238.625 141.08 238.8 141.094C238.974 141.108 239.107 141.38 239.079 141.694Z" fill="white"/>
<path d="M268.465 142.176L268.681 143.928H270.161L270.301 142.224L268.465 142.176Z" fill="#FCA43C"/>
<path opacity="0.7" d="M268.465 142.176L268.681 143.928H270.161L270.301 142.224L268.465 142.176Z" fill="white"/>
<path d="M197.904 269.274L198.302 277.867H200.905V271.306L197.904 269.274Z" fill="#263238"/>
<path d="M288.616 269.274L289.014 277.867H291.617V271.306L288.616 269.274Z" fill="#263238"/>
<path d="M294.5 146.364H196.005V271.69H294.5V146.364Z" fill="#263238"/>
<path opacity="0.6" d="M294.5 146.364H196.005V271.69H294.5V146.364Z" fill="white"/>
<path d="M301.41 269.274L301.808 277.867H304.405V271.306L301.41 269.274Z" fill="#263238"/>
<path d="M244.237 150.328H199.405V267.634H244.237V150.328Z" fill="#263238"/>
<path opacity="0.5" d="M244.237 150.328H199.405V267.634H244.237V150.328Z" fill="white"/>
<path d="M291.617 150.328H246.785V267.634H291.617V150.328Z" fill="#263238"/>
<path opacity="0.5" d="M291.617 150.328H246.785V267.634H291.617V150.328Z" fill="white"/>
<path d="M238.018 205.31C238.134 205.318 238.25 205.304 238.36 205.267C238.47 205.231 238.571 205.173 238.659 205.097C238.746 205.021 238.818 204.929 238.87 204.825C238.922 204.722 238.952 204.609 238.96 204.493V198.867C238.942 198.634 238.833 198.418 238.657 198.265C238.481 198.112 238.251 198.035 238.018 198.051C237.785 198.035 237.555 198.112 237.379 198.265C237.203 198.418 237.094 198.634 237.076 198.867V204.514C237.097 204.744 237.208 204.956 237.384 205.105C237.56 205.254 237.788 205.327 238.018 205.31Z" fill="#E0E0E0"/>
<path d="M253.179 205.31C253.294 205.318 253.41 205.304 253.52 205.267C253.63 205.231 253.732 205.173 253.819 205.097C253.907 205.021 253.979 204.929 254.03 204.825C254.082 204.722 254.113 204.609 254.121 204.493V198.867C254.103 198.634 253.994 198.418 253.818 198.265C253.641 198.112 253.412 198.035 253.179 198.051C252.946 198.035 252.716 198.112 252.54 198.265C252.363 198.418 252.254 198.634 252.236 198.867V204.514C252.258 204.744 252.368 204.956 252.545 205.105C252.721 205.254 252.949 205.327 253.179 205.31Z" fill="#E0E0E0"/>
<path d="M308.314 146.364H294.5V271.69H308.314V146.364Z" fill="#263238"/>
<path opacity="0.4" d="M308.314 146.364H294.5V271.69H308.314V146.364Z" fill="white"/>
<path d="M294.835 144.249V146.029H272.485V144.249L278.153 142.001H289.167L294.835 144.249Z" fill="#263238"/>
<path opacity="0.2" d="M294.835 144.249V144.263H272.485V144.249L278.153 142.001H289.167L294.835 144.249Z" fill="white"/>
<path d="M283.206 118.102C284.875 117.934 284.309 116.538 285 115.617C285.691 114.695 287.436 114.633 287.792 116.538C288.148 118.444 287.792 123.337 283.604 123.518C279.416 123.7 279.018 117.376 279.018 117.376C279.018 117.376 280.366 118.395 283.206 118.102Z" fill="#FCA43C"/>
<path opacity="0.5" d="M283.206 118.102C284.875 117.934 284.309 116.538 285 115.617C285.691 114.695 287.436 114.633 287.792 116.538C288.148 118.444 287.792 123.337 283.604 123.518C279.416 123.7 279.018 117.376 279.018 117.376C279.018 117.376 280.366 118.395 283.206 118.102Z" fill="white"/>
<path d="M287.709 116.238C287.709 116.238 288.881 116.482 288.944 116.831C289.007 117.18 287.709 117.459 287.709 117.459C287.709 117.459 286.794 117.041 286.794 116.845C286.794 116.65 287.709 116.238 287.709 116.238Z" fill="#FCA43C"/>
<path d="M286.348 116.378C286.348 116.448 286.32 116.515 286.27 116.565C286.22 116.615 286.153 116.643 286.082 116.643C286.043 116.649 286.004 116.647 285.966 116.636C285.928 116.626 285.892 116.607 285.862 116.581C285.832 116.556 285.808 116.524 285.792 116.488C285.775 116.452 285.767 116.413 285.767 116.374C285.767 116.335 285.775 116.296 285.792 116.26C285.808 116.224 285.832 116.192 285.862 116.167C285.892 116.141 285.928 116.122 285.966 116.112C286.004 116.101 286.043 116.099 286.082 116.105C286.118 116.105 286.153 116.112 286.185 116.126C286.218 116.14 286.248 116.16 286.272 116.185C286.297 116.211 286.316 116.241 286.329 116.274C286.342 116.307 286.348 116.342 286.348 116.378Z" fill="#FCA43C"/>
<path d="M291.213 143.209H276.01C275.568 143.207 275.145 143.03 274.833 142.718C274.52 142.406 274.344 141.982 274.342 141.54C274.344 141.099 274.52 140.675 274.833 140.363C275.145 140.05 275.568 139.874 276.01 139.872H291.213C291.654 139.874 292.078 140.05 292.39 140.363C292.703 140.675 292.879 141.099 292.881 141.54C292.879 141.982 292.703 142.406 292.39 142.718C292.078 143.03 291.654 143.207 291.213 143.209Z" fill="#FCA43C"/>
<path d="M290.04 139.879H277.183C276.741 139.877 276.318 139.701 276.005 139.389C275.693 139.076 275.516 138.653 275.515 138.211C275.515 137.769 275.69 137.344 276.003 137.031C276.316 136.719 276.74 136.543 277.183 136.543H290.04C290.482 136.545 290.905 136.721 291.217 137.033C291.53 137.346 291.706 137.769 291.708 138.211C291.706 138.653 291.53 139.076 291.217 139.389C290.905 139.701 290.482 139.877 290.04 139.879Z" fill="#263238"/>
<path d="M288.86 136.543H278.39C277.948 136.543 277.524 136.367 277.211 136.054C276.898 135.741 276.722 135.317 276.722 134.875C276.724 134.433 276.9 134.009 277.213 133.697C277.525 133.385 277.948 133.208 278.39 133.206H288.86C289.303 133.206 289.728 133.382 290.042 133.695C290.356 134.007 290.534 134.431 290.536 134.875C290.534 135.318 290.356 135.742 290.042 136.055C289.728 136.367 289.303 136.543 288.86 136.543Z" fill="#FCA43C"/>
<path d="M287.688 133.213H279.521C279.079 133.211 278.656 133.035 278.343 132.723C278.031 132.41 277.855 131.987 277.853 131.545C277.855 131.103 278.031 130.68 278.343 130.368C278.656 130.055 279.079 129.879 279.521 129.877H287.688C288.13 129.877 288.554 130.053 288.867 130.365C289.18 130.678 289.356 131.103 289.356 131.545C289.354 131.987 289.178 132.41 288.865 132.723C288.553 133.035 288.13 133.211 287.688 133.213Z" fill="#263238"/>
<path d="M286.515 129.877H280.694C280.252 129.875 279.829 129.699 279.516 129.386C279.204 129.074 279.027 128.651 279.026 128.209C279.027 127.767 279.204 127.344 279.516 127.031C279.829 126.719 280.252 126.542 280.694 126.54H286.515C286.957 126.542 287.38 126.719 287.693 127.031C288.005 127.344 288.181 127.767 288.183 128.209C288.183 128.651 288.008 129.075 287.695 129.388C287.382 129.701 286.958 129.877 286.515 129.877Z" fill="#FCA43C"/>
<path d="M285.342 126.547H281.852C281.411 126.546 280.987 126.369 280.675 126.057C280.362 125.744 280.186 125.321 280.184 124.879C280.184 124.437 280.36 124.012 280.673 123.7C280.986 123.387 281.41 123.211 281.852 123.211H285.342C285.785 123.211 286.209 123.387 286.522 123.7C286.835 124.012 287.011 124.437 287.011 124.879C287.009 125.321 286.832 125.744 286.52 126.057C286.208 126.369 285.784 126.546 285.342 126.547Z" fill="#263238"/>
<path opacity="0.2" d="M290.04 139.879H277.183C276.741 139.877 276.318 139.701 276.005 139.389C275.693 139.076 275.516 138.653 275.515 138.211C275.515 137.769 275.69 137.344 276.003 137.031C276.316 136.719 276.74 136.543 277.183 136.543H290.04C290.482 136.545 290.905 136.721 291.217 137.033C291.53 137.346 291.706 137.769 291.708 138.211C291.706 138.653 291.53 139.076 291.217 139.389C290.905 139.701 290.482 139.877 290.04 139.879Z" fill="white"/>
<path opacity="0.2" d="M288.86 136.543H278.39C277.948 136.543 277.524 136.367 277.211 136.054C276.898 135.741 276.722 135.317 276.722 134.875C276.724 134.433 276.9 134.009 277.213 133.697C277.525 133.385 277.948 133.208 278.39 133.206H288.86C289.303 133.206 289.728 133.382 290.042 133.695C290.356 134.007 290.534 134.431 290.536 134.875C290.534 135.318 290.356 135.742 290.042 136.055C289.728 136.367 289.303 136.543 288.86 136.543Z" fill="white"/>
<path opacity="0.4" d="M287.688 133.213H279.521C279.079 133.211 278.656 133.035 278.343 132.723C278.031 132.41 277.855 131.987 277.853 131.545C277.855 131.103 278.031 130.68 278.343 130.368C278.656 130.055 279.079 129.879 279.521 129.877H287.688C288.13 129.877 288.554 130.053 288.867 130.365C289.18 130.678 289.356 131.103 289.356 131.545C289.354 131.987 289.178 132.41 288.865 132.723C288.553 133.035 288.13 133.211 287.688 133.213Z" fill="white"/>
<path opacity="0.4" d="M286.515 129.877H280.694C280.252 129.875 279.829 129.699 279.516 129.386C279.204 129.074 279.027 128.651 279.026 128.209C279.027 127.767 279.204 127.344 279.516 127.031C279.829 126.719 280.252 126.542 280.694 126.54H286.515C286.957 126.542 287.38 126.719 287.693 127.031C288.005 127.344 288.181 127.767 288.183 128.209C288.183 128.651 288.008 129.075 287.695 129.388C287.382 129.701 286.958 129.877 286.515 129.877Z" fill="white"/>
<path opacity="0.6" d="M285.342 126.547H281.852C281.411 126.546 280.987 126.369 280.675 126.057C280.362 125.744 280.186 125.321 280.184 124.879C280.184 124.437 280.36 124.012 280.673 123.7C280.986 123.387 281.41 123.211 281.852 123.211H285.342C285.785 123.211 286.209 123.387 286.522 123.7C286.835 124.012 287.011 124.437 287.011 124.879C287.009 125.321 286.832 125.744 286.52 126.057C286.208 126.369 285.784 126.546 285.342 126.547Z" fill="white"/>
<path d="M238.734 140.149L240.99 135.666C241.352 134.946 241.062 134.069 240.343 133.707L232.998 130.011C232.278 129.649 231.401 129.939 231.039 130.659L228.783 135.142C228.421 135.862 228.711 136.739 229.431 137.101L236.776 140.796C237.495 141.159 238.372 140.869 238.734 140.149Z" fill="#FCA43C"/>
<path opacity="0.2" d="M238.734 140.149L240.99 135.666C241.352 134.946 241.062 134.069 240.343 133.707L232.998 130.011C232.278 129.649 231.401 129.939 231.039 130.659L228.783 135.142C228.421 135.862 228.711 136.739 229.431 137.101L236.776 140.796C237.495 141.159 238.372 140.869 238.734 140.149Z" fill="white"/>
<path opacity="0.2" d="M240.371 136.903L240.992 135.669C241.354 134.949 241.064 134.072 240.344 133.71L232.999 130.014C232.28 129.652 231.403 129.942 231.04 130.661L230.419 131.896C230.057 132.616 230.347 133.493 231.067 133.855L238.412 137.551C239.131 137.913 240.008 137.623 240.371 136.903Z" fill="white"/>
<path d="M239.958 134.114C240.021 133.995 240.398 133.248 240.454 133.13C240.642 132.767 240.084 132.117 239.226 131.685C238.367 131.252 237.515 131.196 237.334 131.552C237.271 131.671 236.894 132.425 236.838 132.543C236.657 132.899 237.208 133.548 238.067 133.981C238.925 134.414 239.777 134.477 239.958 134.114Z" fill="#FCA43C"/>
<path opacity="0.1" d="M239.958 134.114C240.021 133.995 240.398 133.248 240.454 133.13C240.642 132.767 240.084 132.117 239.226 131.685C238.367 131.252 237.515 131.196 237.334 131.552C237.271 131.671 236.894 132.425 236.838 132.543C236.657 132.899 237.208 133.548 238.067 133.981C238.925 134.414 239.777 134.477 239.958 134.114Z" fill="white"/>
<path opacity="0.2" d="M238.562 132.997C237.704 132.564 237.166 131.915 237.334 131.552C237.501 131.189 238.36 131.252 239.226 131.685C240.091 132.117 240.622 132.767 240.454 133.13C240.286 133.493 239.414 133.43 238.562 132.997Z" fill="white"/>
<path d="M236.057 132.145L236.552 131.161C236.734 130.798 236.182 130.156 235.317 129.723C234.451 129.291 233.607 129.228 233.425 129.591C233.369 129.709 232.992 130.456 232.93 130.575C232.748 130.938 233.3 131.58 234.165 132.02C235.031 132.459 235.875 132.508 236.057 132.145Z" fill="#FCA43C"/>
<path opacity="0.1" d="M236.057 132.145L236.552 131.161C236.734 130.798 236.182 130.156 235.317 129.723C234.451 129.291 233.607 129.228 233.425 129.591C233.369 129.709 232.992 130.456 232.93 130.575C232.748 130.938 233.3 131.58 234.165 132.02C235.031 132.459 235.875 132.508 236.057 132.145Z" fill="white"/>
<path opacity="0.2" d="M234.661 131.036C233.795 130.596 233.265 129.954 233.425 129.591C233.586 129.228 234.458 129.284 235.317 129.723C236.175 130.163 236.713 130.798 236.552 131.161C236.392 131.524 235.519 131.468 234.661 131.036Z" fill="white"/>
<path d="M238.814 136.389L239.309 135.405C239.498 135.042 238.939 134.393 238.081 133.96C237.222 133.527 236.371 133.465 236.189 133.828C236.126 133.946 235.75 134.7 235.694 134.819C235.512 135.175 236.064 135.824 236.922 136.257C237.781 136.689 238.632 136.752 238.814 136.389Z" fill="#FCA43C"/>
<path opacity="0.1" d="M238.814 136.389L239.309 135.405C239.498 135.042 238.939 134.393 238.081 133.96C237.222 133.527 236.371 133.465 236.189 133.828C236.126 133.946 235.75 134.7 235.694 134.819C235.512 135.175 236.064 135.824 236.922 136.257C237.781 136.689 238.632 136.752 238.814 136.389Z" fill="white"/>
<path opacity="0.2" d="M237.418 135.272C236.559 134.84 236.022 134.191 236.189 133.828C236.357 133.465 237.215 133.527 238.081 133.96C238.946 134.393 239.477 135.042 239.309 135.405C239.142 135.768 238.283 135.705 237.418 135.272Z" fill="white"/>
<path d="M234.912 134.421C234.968 134.302 235.345 133.555 235.407 133.437C235.589 133.074 235.038 132.432 234.172 131.999C233.306 131.566 232.462 131.503 232.28 131.866C232.225 131.985 231.848 132.732 231.785 132.85C231.603 133.213 232.155 133.855 233.02 134.295C233.886 134.735 234.73 134.784 234.912 134.421Z" fill="#FCA43C"/>
<path opacity="0.1" d="M234.912 134.421C234.968 134.302 235.345 133.555 235.407 133.437C235.589 133.074 235.038 132.432 234.172 131.999C233.306 131.566 232.462 131.503 232.28 131.866C232.225 131.985 231.848 132.732 231.785 132.85C231.603 133.213 232.155 133.855 233.02 134.295C233.886 134.735 234.73 134.784 234.912 134.421Z" fill="white"/>
<path opacity="0.2" d="M233.516 133.318C232.65 132.885 232.12 132.243 232.28 131.88C232.441 131.517 233.313 131.573 234.172 132.013C235.031 132.452 235.568 133.088 235.407 133.451C235.247 133.814 234.374 133.744 233.516 133.318Z" fill="white"/>
<path d="M229.963 135.175H222.774C221.683 135.175 220.798 136.059 220.798 137.15V144.339C220.798 145.43 221.683 146.315 222.774 146.315H229.963C231.054 146.315 231.938 145.43 231.938 144.339V137.15C231.938 136.059 231.054 135.175 229.963 135.175Z" fill="#263238"/>
<path opacity="0.3" d="M229.963 135.175H222.774C221.683 135.175 220.798 136.059 220.798 137.15V144.339C220.798 145.43 221.683 146.315 222.774 146.315H229.963C231.054 146.315 231.938 145.43 231.938 144.339V137.15C231.938 136.059 231.054 135.175 229.963 135.175Z" fill="white"/>
<path opacity="0.2" d="M226.752 135.175H222.774C221.683 135.175 220.798 136.059 220.798 137.15V144.339C220.798 145.43 221.683 146.315 222.774 146.315H226.752C227.843 146.315 228.728 145.43 228.728 144.339V137.15C228.728 136.059 227.843 135.175 226.752 135.175Z" fill="white"/>
<path d="M222.46 136.808H221.133C220.75 136.912 220.411 137.139 220.17 137.454C219.929 137.77 219.798 138.156 219.798 138.553C219.798 138.95 219.929 139.336 220.17 139.652C220.411 139.967 220.75 140.194 221.133 140.298H222.46C222.847 140.199 223.191 139.974 223.437 139.658C223.682 139.342 223.815 138.953 223.815 138.553C223.815 138.153 223.682 137.764 223.437 137.448C223.191 137.132 222.847 136.907 222.46 136.808Z" fill="#263238"/>
<path opacity="0.2" d="M222.46 136.808H221.133C220.75 136.912 220.411 137.139 220.17 137.454C219.929 137.77 219.798 138.156 219.798 138.553C219.798 138.95 219.929 139.336 220.17 139.652C220.411 139.967 220.75 140.194 221.133 140.298H222.46C222.847 140.199 223.191 139.974 223.437 139.658C223.682 139.342 223.815 138.953 223.815 138.553C223.815 138.153 223.682 137.764 223.437 137.448C223.191 137.132 222.847 136.907 222.46 136.808Z" fill="white"/>
<path opacity="0.2" d="M222.487 138.56C222.421 138.812 222.285 139.04 222.096 139.219C221.906 139.398 221.67 139.52 221.415 139.572C221.16 139.624 220.895 139.603 220.651 139.512C220.406 139.421 220.192 139.264 220.033 139.058C219.874 138.852 219.775 138.605 219.749 138.346C219.722 138.086 219.769 137.825 219.884 137.591C219.998 137.357 220.176 137.159 220.397 137.021C220.618 136.883 220.873 136.809 221.133 136.808C221.542 136.867 221.912 137.083 222.165 137.41C222.418 137.737 222.533 138.149 222.487 138.56Z" fill="white"/>
<path d="M222.46 141.177H221.133C220.75 141.281 220.411 141.508 220.17 141.824C219.929 142.139 219.798 142.525 219.798 142.922C219.798 143.32 219.929 143.706 220.17 144.021C220.411 144.337 220.75 144.564 221.133 144.667H222.46C222.847 144.569 223.191 144.343 223.437 144.027C223.682 143.711 223.815 143.323 223.815 142.922C223.815 142.522 223.682 142.134 223.437 141.818C223.191 141.502 222.847 141.276 222.46 141.177Z" fill="#263238"/>
<path opacity="0.2" d="M222.46 141.177H221.133C220.75 141.281 220.411 141.508 220.17 141.824C219.929 142.139 219.798 142.525 219.798 142.922C219.798 143.32 219.929 143.706 220.17 144.021C220.411 144.337 220.75 144.564 221.133 144.667H222.46C222.847 144.569 223.191 144.343 223.437 144.027C223.682 143.711 223.815 143.323 223.815 142.922C223.815 142.522 223.682 142.134 223.437 141.818C223.191 141.502 222.847 141.276 222.46 141.177Z" fill="white"/>
<path opacity="0.2" d="M222.487 142.929C222.421 143.181 222.285 143.41 222.096 143.589C221.906 143.768 221.67 143.89 221.415 143.942C221.16 143.993 220.895 143.973 220.651 143.882C220.406 143.791 220.192 143.633 220.033 143.427C219.874 143.221 219.775 142.974 219.749 142.715C219.722 142.456 219.769 142.194 219.884 141.96C219.998 141.726 220.176 141.529 220.397 141.39C220.618 141.252 220.873 141.178 221.133 141.177C221.542 141.237 221.912 141.452 222.165 141.779C222.418 142.106 222.533 142.519 222.487 142.929Z" fill="white"/>
<path d="M226.459 136.808H225.126C224.743 136.912 224.404 137.139 224.163 137.454C223.921 137.77 223.791 138.156 223.791 138.553C223.791 138.95 223.921 139.336 224.163 139.652C224.404 139.967 224.743 140.194 225.126 140.298H226.459C226.842 140.194 227.181 139.967 227.422 139.652C227.664 139.336 227.795 138.95 227.795 138.553C227.795 138.156 227.664 137.77 227.422 137.454C227.181 137.139 226.842 136.912 226.459 136.808Z" fill="#263238"/>
<path opacity="0.2" d="M226.459 136.808H225.126C224.743 136.912 224.404 137.139 224.163 137.454C223.921 137.77 223.791 138.156 223.791 138.553C223.791 138.95 223.921 139.336 224.163 139.652C224.404 139.967 224.743 140.194 225.126 140.298H226.459C226.842 140.194 227.181 139.967 227.422 139.652C227.664 139.336 227.795 138.95 227.795 138.553C227.795 138.156 227.664 137.77 227.422 137.454C227.181 137.139 226.842 136.912 226.459 136.808Z" fill="white"/>
<path opacity="0.2" d="M226.48 138.56C226.414 138.812 226.278 139.04 226.088 139.219C225.899 139.398 225.663 139.52 225.408 139.572C225.152 139.624 224.887 139.603 224.643 139.512C224.399 139.421 224.185 139.264 224.026 139.058C223.866 138.852 223.768 138.605 223.741 138.346C223.715 138.086 223.762 137.825 223.876 137.591C223.991 137.357 224.168 137.159 224.389 137.021C224.61 136.883 224.865 136.809 225.126 136.808C225.535 136.867 225.905 137.083 226.158 137.41C226.41 137.737 226.526 138.149 226.48 138.56Z" fill="white"/>
<path d="M226.459 141.177H225.126C224.743 141.281 224.404 141.508 224.163 141.824C223.921 142.139 223.791 142.525 223.791 142.922C223.791 143.32 223.921 143.706 224.163 144.021C224.404 144.337 224.743 144.564 225.126 144.667H226.459C226.842 144.564 227.181 144.337 227.422 144.021C227.664 143.706 227.795 143.32 227.795 142.922C227.795 142.525 227.664 142.139 227.422 141.824C227.181 141.508 226.842 141.281 226.459 141.177Z" fill="#263238"/>
<path opacity="0.2" d="M226.459 141.177H225.126C224.743 141.281 224.404 141.508 224.163 141.824C223.921 142.139 223.791 142.525 223.791 142.922C223.791 143.32 223.921 143.706 224.163 144.021C224.404 144.337 224.743 144.564 225.126 144.667H226.459C226.842 144.564 227.181 144.337 227.422 144.021C227.664 143.706 227.795 143.32 227.795 142.922C227.795 142.525 227.664 142.139 227.422 141.824C227.181 141.508 226.842 141.281 226.459 141.177Z" fill="white"/>
<path opacity="0.2" d="M226.48 142.929C226.414 143.181 226.278 143.41 226.088 143.589C225.899 143.768 225.663 143.89 225.408 143.942C225.152 143.993 224.887 143.973 224.643 143.882C224.399 143.791 224.185 143.633 224.026 143.427C223.866 143.221 223.768 142.974 223.741 142.715C223.715 142.456 223.762 142.194 223.876 141.96C223.991 141.726 224.168 141.529 224.389 141.39C224.61 141.252 224.865 141.178 225.126 141.177C225.535 141.237 225.905 141.452 226.158 141.779C226.41 142.106 226.526 142.519 226.48 142.929Z" fill="white"/>
<path d="M241.689 144.849V139.83C241.689 139.025 241.036 138.372 240.231 138.372H232.008C231.203 138.372 230.549 139.025 230.549 139.83V144.849C230.549 145.655 231.203 146.308 232.008 146.308H240.231C241.036 146.308 241.689 145.655 241.689 144.849Z" fill="#FCA43C"/>
<path opacity="0.6" d="M241.689 144.849V139.83C241.689 139.025 241.036 138.372 240.231 138.372H232.008C231.203 138.372 230.549 139.025 230.549 139.83V144.849C230.549 145.655 231.203 146.308 232.008 146.308H240.231C241.036 146.308 241.689 145.655 241.689 144.849Z" fill="white"/>
<path opacity="0.2" d="M241.689 141.212V139.83C241.689 139.025 241.036 138.372 240.231 138.372H232.008C231.203 138.372 230.549 139.025 230.549 139.83V141.212C230.549 142.018 231.203 142.671 232.008 142.671H240.231C241.036 142.671 241.689 142.018 241.689 141.212Z" fill="white"/>
<path d="M240.056 138.902V137.799C240.056 137.394 239.267 137.101 238.304 137.101C237.341 137.101 236.552 137.429 236.552 137.799V138.902C236.552 139.307 237.341 139.6 238.304 139.6C239.267 139.6 240.056 139.3 240.056 138.902Z" fill="#FCA43C"/>
<path opacity="0.5" d="M240.056 138.902V137.799C240.056 137.394 239.267 137.101 238.304 137.101C237.341 137.101 236.552 137.429 236.552 137.799V138.902C236.552 139.307 237.341 139.6 238.304 139.6C239.267 139.6 240.056 139.3 240.056 138.902Z" fill="white"/>
<path opacity="0.2" d="M238.304 138.525C239.272 138.525 240.056 138.197 240.056 137.792C240.056 137.387 239.272 137.059 238.304 137.059C237.337 137.059 236.552 137.387 236.552 137.792C236.552 138.197 237.337 138.525 238.304 138.525Z" fill="white"/>
<path d="M235.68 138.902V137.799C235.68 137.394 234.898 137.101 233.935 137.101C232.971 137.101 232.183 137.429 232.183 137.799V138.902C232.183 139.307 232.964 139.6 233.935 139.6C234.905 139.6 235.68 139.3 235.68 138.902Z" fill="#FCA43C"/>
<path opacity="0.5" d="M235.68 138.902V137.799C235.68 137.394 234.898 137.101 233.935 137.101C232.971 137.101 232.183 137.429 232.183 137.799V138.902C232.183 139.307 232.964 139.6 233.935 139.6C234.905 139.6 235.68 139.3 235.68 138.902Z" fill="white"/>
<path opacity="0.2" d="M233.935 138.525C232.964 138.525 232.183 138.197 232.183 137.792C232.183 137.387 232.964 137.094 233.935 137.094C234.905 137.094 235.68 137.422 235.68 137.792C235.68 138.162 234.898 138.525 233.935 138.525Z" fill="white"/>
<path d="M240.056 141.443V140.34C240.056 139.935 239.267 139.607 238.304 139.607C237.341 139.607 236.552 139.935 236.552 140.34V141.443C236.552 141.848 237.341 142.176 238.304 142.176C239.267 142.176 240.056 141.848 240.056 141.443Z" fill="#FCA43C"/>
<path opacity="0.5" d="M240.056 141.443V140.34C240.056 139.935 239.267 139.607 238.304 139.607C237.341 139.607 236.552 139.935 236.552 140.34V141.443C236.552 141.848 237.341 142.176 238.304 142.176C239.267 142.176 240.056 141.848 240.056 141.443Z" fill="white"/>
<path opacity="0.2" d="M238.304 141.073C239.272 141.073 240.056 140.745 240.056 140.34C240.056 139.935 239.272 139.607 238.304 139.607C237.337 139.607 236.552 139.935 236.552 140.34C236.552 140.745 237.337 141.073 238.304 141.073Z" fill="white"/>
<path d="M235.68 141.443V140.34C235.68 139.935 234.898 139.607 233.935 139.607C232.971 139.607 232.183 139.935 232.183 140.34V141.443C232.183 141.848 232.964 142.176 233.935 142.176C234.905 142.176 235.68 141.848 235.68 141.443Z" fill="#FCA43C"/>
<path opacity="0.5" d="M235.68 141.443V140.34C235.68 139.935 234.898 139.607 233.935 139.607C232.971 139.607 232.183 139.935 232.183 140.34V141.443C232.183 141.848 232.964 142.176 233.935 142.176C234.905 142.176 235.68 141.848 235.68 141.443Z" fill="white"/>
<path opacity="0.2" d="M233.935 141.073C232.964 141.073 232.183 140.745 232.183 140.34C232.183 139.935 232.964 139.607 233.935 139.607C234.905 139.607 235.68 139.935 235.68 140.34C235.68 140.745 234.898 141.073 233.935 141.073Z" fill="white"/>
<path d="M282.711 201.848H145.687V206.566H282.711V201.848Z" fill="#FCA43C"/>
<path opacity="0.6" d="M282.711 206.566H145.687V201.848H282.711V206.566Z" fill="white"/>
<path opacity="0.2" d="M282.711 201.848H145.687V204.207H282.711V201.848Z" fill="black"/>
<path d="M285.259 202.462H143.132C142.763 202.477 142.403 202.345 142.13 202.095C141.858 201.845 141.696 201.498 141.68 201.129C141.698 200.761 141.861 200.415 142.133 200.167C142.405 199.918 142.764 199.787 143.132 199.802H285.259C285.627 199.787 285.986 199.918 286.258 200.167C286.53 200.415 286.692 200.761 286.711 201.129C286.694 201.498 286.532 201.845 286.26 202.095C285.988 202.345 285.628 202.477 285.259 202.462Z" fill="#FCA43C"/>
<path opacity="0.6" d="M285.259 202.462H143.132C142.763 202.477 142.403 202.345 142.13 202.095C141.858 201.845 141.696 201.498 141.68 201.129C141.698 200.761 141.861 200.415 142.133 200.167C142.405 199.918 142.764 199.787 143.132 199.802H285.259C285.627 199.787 285.986 199.918 286.258 200.167C286.53 200.415 286.692 200.761 286.711 201.129C286.694 201.498 286.532 201.845 286.26 202.095C285.988 202.345 285.628 202.477 285.259 202.462Z" fill="white"/>
<path d="M151.955 206.573H145.631V290.536H151.955V206.573Z" fill="#FCA43C"/>
<path opacity="0.5" d="M151.955 206.51H145.631V290.535H151.955V206.51Z" fill="white"/>
<path opacity="0.2" d="M151.955 206.51H145.631V217.916H151.955V206.51Z" fill="black"/>
<path d="M282.711 206.573H276.387V290.536H282.711V206.573Z" fill="#FCA43C"/>
<path opacity="0.5" d="M282.711 206.51H276.387V290.535H282.711V206.51Z" fill="white"/>
<path opacity="0.2" d="M282.711 206.51H276.387V217.916H282.711V206.51Z" fill="black"/>
<path d="M201.303 206.573H194.979V290.536H201.303V206.573Z" fill="#FCA43C"/>
<path opacity="0.5" d="M201.303 206.51H194.979V290.535H201.303V206.51Z" fill="white"/>
<path opacity="0.2" d="M201.303 206.51H194.979V223.025H201.303V206.51Z" fill="black"/>
<path d="M156.059 219.353L158.983 220.051L160.456 216.017L161.796 212.339L158.467 210.929L157.19 215.382L156.059 219.353Z" fill="#E4897B"/>
<path d="M159.695 219.87C159.765 219.549 155.745 218.851 155.745 218.851C155.745 218.851 152.708 220.749 150.21 220.736C147.711 220.722 148.695 222.467 151.34 223.102L157.888 224.665C159.765 225.098 158.976 223.22 159.695 219.87Z" fill="#263238"/>
<path d="M153.085 219.172C153.041 219.106 153.017 219.028 153.017 218.949C153.017 218.869 153.041 218.791 153.085 218.725C153.115 218.672 153.155 218.626 153.203 218.588C153.251 218.551 153.306 218.524 153.365 218.509C153.672 218.463 153.986 218.505 154.272 218.628C153.993 218.376 153.762 218.097 153.797 217.888C153.832 217.678 153.937 217.657 154.139 217.615C154.228 217.597 154.32 217.597 154.409 217.616C154.498 217.636 154.582 217.673 154.656 217.727C155.137 218.076 155.249 219.081 155.256 219.123C155.26 219.139 155.26 219.156 155.256 219.172H155.221C154.799 219.262 154.369 219.313 153.937 219.326C153.792 219.362 153.641 219.367 153.495 219.34C153.348 219.314 153.208 219.256 153.085 219.172ZM153.427 218.718C153.396 218.725 153.367 218.739 153.342 218.758C153.317 218.778 153.296 218.802 153.281 218.83C153.204 218.977 153.281 219.025 153.281 219.046C153.427 219.242 154.209 219.2 154.851 219.088C154.421 218.833 153.927 218.705 153.427 218.718ZM154.188 217.832C154.132 217.832 154.028 217.874 154.014 217.93C154.014 218.111 154.474 218.551 155.012 218.914C154.965 218.535 154.799 218.18 154.537 217.902C154.465 217.847 154.377 217.818 154.286 217.818L154.188 217.832Z" fill="#263238"/>
<path d="M189.493 225.95L192.208 224.651L190.812 220.582L189.535 216.89L186.059 217.888L187.874 222.152L189.493 225.95Z" fill="#E4897B"/>
<path d="M192.648 224.058C192.501 223.765 188.935 225.761 188.935 225.761C188.935 225.761 187.776 229.139 185.829 230.71C183.881 232.28 185.738 233.006 188.188 231.834L194.26 228.923C195.991 228.078 194.191 227.115 192.648 224.058Z" fill="#263238"/>
<path d="M187.064 227.681C186.989 227.656 186.923 227.61 186.875 227.547C186.826 227.485 186.797 227.41 186.792 227.332C186.779 227.271 186.779 227.209 186.792 227.149C186.806 227.089 186.832 227.032 186.869 226.983C187.077 226.754 187.346 226.587 187.643 226.501C187.273 226.501 186.945 226.417 186.813 226.229C186.68 226.04 186.813 225.964 186.91 225.803C186.966 225.731 187.037 225.673 187.118 225.632C187.198 225.591 187.287 225.568 187.378 225.566C187.971 225.531 188.69 226.264 188.725 226.264V226.306V226.375V226.41C188.455 226.748 188.154 227.059 187.825 227.339C187.728 227.444 187.61 227.529 187.479 227.588C187.349 227.646 187.207 227.678 187.064 227.681ZM187.064 227.108C187.044 227.134 187.03 227.163 187.023 227.194C187.016 227.226 187.016 227.258 187.022 227.29C187.022 227.45 187.113 227.464 187.141 227.471C187.378 227.527 187.957 227.004 188.39 226.515C187.902 226.586 187.442 226.791 187.064 227.108ZM187.064 225.943C187.064 225.984 186.966 226.075 186.994 226.124C187.085 226.285 187.748 226.32 188.39 226.264C188.113 225.998 187.758 225.827 187.378 225.775C187.289 225.78 187.204 225.812 187.134 225.866L187.064 225.943Z" fill="#263238"/>
<path d="M175.107 148.046L171.98 145.254C171.98 145.254 172.357 144.388 171.282 143.942C170.207 143.495 163.737 143.872 163.737 143.872C163.737 143.872 164.435 146.594 165.035 147.264C165.635 147.934 170.619 147.397 170.619 147.397L173.174 149.972L175.107 148.046Z" fill="#EBB376"/>
<path d="M171.303 149.372L171.722 149.861C173.369 151.738 179.533 158.634 185.235 162.753C186.629 163.806 188.146 164.688 189.751 165.377L190.833 163.458L193.723 158.383C186.708 156.61 176.817 148.716 174.486 146.803C174.158 146.538 173.983 146.385 173.983 146.385L171.303 149.372Z" fill="#FCA43C"/>
<path opacity="0.2" d="M185.235 162.781C186.629 163.834 188.146 164.715 189.751 165.405L190.833 163.486C189.025 162.913 187.129 162.674 185.235 162.781Z" fill="black"/>
<path opacity="0.6" d="M171.303 149.372L171.722 149.861L174.514 146.803C174.186 146.538 174.011 146.385 174.011 146.385L171.303 149.372Z" fill="white"/>
<path d="M229.028 154.405L232.769 152.485C232.769 152.485 232.615 151.557 233.795 151.396C234.975 151.236 241.117 153.232 241.117 153.232C241.117 153.232 239.777 155.696 239.023 156.191C238.269 156.687 233.565 154.9 233.565 154.9L230.445 156.75L229.028 154.405Z" fill="#EBB376"/>
<path d="M232.371 156.673L231.841 157.036C229.782 158.432 222.069 163.562 215.514 166.11C213.902 166.776 212.214 167.245 210.489 167.506L209.916 165.377L208.409 159.737C215.64 159.793 227.199 154.642 229.942 153.379L230.535 153.099L232.371 156.673Z" fill="#FCA43C"/>
<path opacity="0.6" d="M232.371 156.673L231.841 157.036L229.942 153.386L230.535 153.106L232.371 156.673Z" fill="white"/>
<path d="M184.642 186.066L210.398 187.615C210.44 187.266 210.489 186.917 210.524 186.568C211.018 182.079 211.251 177.565 211.222 173.048C211.222 170.347 211.11 167.89 211.005 165.88C210.824 162.501 210.594 160.366 210.594 160.366C210.594 160.366 207.034 158.306 199.195 158.097C196.882 157.996 194.566 158.198 192.306 158.697C191.358 158.928 190.516 159.473 189.917 160.244C189.319 161.014 189 161.965 189.011 162.941C189.06 168.958 186.799 178.248 185.521 183.016C184.97 184.893 184.642 186.066 184.642 186.066Z" fill="#FCA43C"/>
<path opacity="0.2" d="M211.194 173.048C211.194 170.347 211.152 169.439 211.047 167.464C210.552 167.269 209.937 165.58 209.351 165.531C209.351 165.496 208.465 170.626 211.194 173.048Z" fill="black"/>
<path opacity="0.6" d="M204.633 159.312C204.633 159.312 203.411 158.027 199.698 158.53C197.948 158.712 196.218 159.058 194.533 159.563C194.533 159.563 193.869 162.529 197.22 163.262C200.57 163.995 205.47 160.142 204.633 159.312Z" fill="white"/>
<path opacity="0.6" d="M184.642 186.066L210.398 187.615C210.44 187.266 210.489 186.917 210.524 186.568L185.493 183.016C184.97 184.893 184.642 186.066 184.642 186.066Z" fill="white"/>
<path opacity="0.4" d="M193.43 168.916C193.43 166.571 193.716 163.416 194.903 163.506C196.089 163.597 196.054 166.431 195.817 168.728C196.686 168.824 197.542 169.011 198.372 169.286C198.413 166.969 198.693 164.016 199.837 164.1C201.233 164.204 200.94 168.03 200.626 170.382C205.631 173.823 203.523 180.943 195.852 179.728C187.441 178.388 188.851 170.431 193.43 168.916Z" fill="white"/>
<path opacity="0.2" d="M195.217 168.588C195.217 168.588 195.482 165.203 194.882 165.098C194.281 164.993 194.184 168.665 194.184 168.665L195.217 168.588Z" fill="black"/>
<path opacity="0.2" d="M198.993 169.307C198.993 169.307 199.091 165.587 199.691 165.496C200.291 165.405 199.9 169.914 199.9 169.914L198.993 169.307Z" fill="black"/>
<path opacity="0.2" d="M193.346 172.266C193.356 172.366 193.396 172.461 193.459 172.539C193.523 172.617 193.609 172.674 193.705 172.703C193.801 172.732 193.904 172.732 194 172.703C194.096 172.674 194.182 172.617 194.246 172.54C194.31 172.462 194.35 172.367 194.36 172.267C194.37 172.167 194.351 172.066 194.304 171.977C194.257 171.889 194.184 171.815 194.096 171.768C194.007 171.72 193.907 171.699 193.807 171.708C193.74 171.714 193.675 171.733 193.615 171.765C193.555 171.796 193.503 171.839 193.46 171.891C193.417 171.943 193.385 172.003 193.365 172.067C193.346 172.132 193.339 172.199 193.346 172.266Z" fill="black"/>
<path opacity="0.2" d="M198.42 173.16C198.433 173.283 198.493 173.396 198.589 173.474C198.684 173.553 198.807 173.59 198.93 173.579C198.994 173.577 199.058 173.562 199.116 173.535C199.174 173.508 199.226 173.469 199.269 173.421C199.312 173.373 199.344 173.317 199.364 173.255C199.384 173.194 199.391 173.13 199.384 173.066C199.378 173.002 199.359 172.94 199.327 172.883C199.296 172.827 199.254 172.778 199.202 172.739C199.151 172.7 199.093 172.672 199.03 172.657C198.968 172.642 198.903 172.639 198.839 172.65C198.778 172.656 198.718 172.673 198.664 172.702C198.61 172.73 198.561 172.769 198.522 172.817C198.483 172.864 198.454 172.919 198.437 172.978C198.419 173.037 198.414 173.099 198.42 173.16Z" fill="black"/>
<path opacity="0.2" d="M196.71 173.788L195.95 173.565L196.173 174.43L196.71 173.788Z" fill="black"/>
<path d="M196.34 156.352C196.464 156.806 196.496 157.279 196.435 157.745C196.374 158.211 196.221 158.661 195.984 159.067C195.899 159.212 195.805 159.351 195.705 159.486C195.546 159.693 195.371 159.887 195.182 160.065C195.23 160.635 195.452 161.176 195.818 161.616C196.184 162.055 196.675 162.371 197.227 162.522C201.317 163.437 203.774 159.905 203.774 159.905C203.233 159.148 202.858 158.285 202.674 157.374C202.49 156.462 202.501 155.521 202.706 154.614C202.905 153.683 203.251 152.79 203.732 151.969L197.862 153.462L195.196 154.16C195.729 154.801 196.12 155.548 196.34 156.352Z" fill="#EBB376"/>
<path opacity="0.2" d="M196.34 156.352C196.464 156.806 196.496 157.279 196.435 157.745C196.374 158.211 196.221 158.661 195.984 159.067C195.899 159.212 195.805 159.351 195.705 159.486C198.958 159.256 201.436 156.436 202.685 154.6C202.884 153.669 203.23 152.776 203.711 151.955L197.841 153.448L195.175 154.146C195.718 154.789 196.115 155.541 196.34 156.352Z" fill="black"/>
<path d="M196.983 136.11C196.983 136.11 189.674 139.342 194.798 146.482C200.591 154.509 196.983 136.11 196.983 136.11Z" fill="#263238"/>
<path d="M209.121 148.199C207.515 152.694 203.537 157.05 199.509 156.673C192.18 155.975 189.821 153.881 190.505 148.486C191.091 143.6 194.805 136.717 200.975 136.969C207.145 137.22 211.361 141.966 209.121 148.199Z" fill="#EBB376"/>
<path d="M195.44 138.937C197.409 140.29 199.708 141.084 202.092 141.233C202.092 141.233 204.751 142.469 203.265 145.421C201.778 148.374 204.954 151.131 203.928 155.326C203.928 155.326 208.416 156.024 211.641 147.09C213.986 140.584 208.939 136.396 202.985 134.854C197.995 133.59 193.493 136.18 195.44 138.937Z" fill="#263238"/>
<path d="M198.281 146.58C198.092 147.152 197.632 147.529 197.255 147.397C196.878 147.264 196.731 146.699 196.913 146.133C197.094 145.568 197.555 145.191 197.939 145.31C198.323 145.428 198.462 146.015 198.281 146.58Z" fill="#263238"/>
<path d="M193.744 144.877C193.569 145.428 193.123 145.784 192.767 145.666C192.411 145.547 192.257 145.003 192.439 144.451C192.62 143.9 193.053 143.551 193.416 143.662C193.779 143.774 193.918 144.325 193.744 144.877Z" fill="#263238"/>
<path d="M197.534 143.16C197.504 143.111 197.488 143.056 197.485 142.999C197.496 142.928 197.533 142.863 197.591 142.819C197.648 142.774 197.72 142.754 197.792 142.762C198.23 142.803 198.65 142.952 199.015 143.196C199.381 143.439 199.68 143.77 199.886 144.158C199.903 144.19 199.913 144.225 199.915 144.261C199.918 144.296 199.913 144.332 199.901 144.366C199.889 144.4 199.871 144.431 199.847 144.458C199.823 144.485 199.793 144.506 199.761 144.521C199.695 144.547 199.622 144.549 199.556 144.526C199.489 144.503 199.433 144.456 199.398 144.395C199.226 144.094 198.983 143.84 198.689 143.656C198.396 143.472 198.061 143.364 197.715 143.341C197.675 143.325 197.637 143.3 197.606 143.269C197.575 143.238 197.55 143.201 197.534 143.16Z" fill="#263238"/>
<path d="M193.004 141.952C192.955 141.924 192.914 141.883 192.885 141.834C192.862 141.765 192.866 141.69 192.895 141.624C192.925 141.558 192.979 141.506 193.046 141.478C193.445 141.309 193.878 141.24 194.31 141.275C194.741 141.31 195.158 141.449 195.524 141.68C195.553 141.701 195.579 141.727 195.598 141.758C195.617 141.789 195.63 141.823 195.636 141.859C195.642 141.895 195.64 141.931 195.632 141.966C195.623 142.002 195.608 142.035 195.587 142.064C195.545 142.122 195.481 142.161 195.411 142.173C195.34 142.184 195.268 142.168 195.21 142.127C194.914 141.947 194.579 141.842 194.234 141.82C193.889 141.798 193.543 141.861 193.227 142.001C193.149 142.013 193.07 141.996 193.004 141.952Z" fill="#263238"/>
<path d="M194.428 145.833L194.239 148.479C193.582 148.435 192.954 148.191 192.439 147.781C193.215 147.258 193.889 146.598 194.428 145.833Z" fill="#D58745"/>
<path d="M203.174 149.533C203.174 149.533 205.226 147.09 206.406 148.409C207.585 149.728 205.903 154.321 203.753 153.672C201.603 153.023 201.722 150.768 203.174 149.533Z" fill="#EBB376"/>
<path d="M193.548 150.14C193.75 150.845 193.902 151.563 194.002 152.29H194.386C196.145 152.29 196.969 151.752 197.346 151.117C197.623 150.616 197.715 150.032 197.604 149.47C196.503 149.941 195.311 150.165 194.114 150.126C193.779 150.147 193.548 150.14 193.548 150.14Z" fill="#263238"/>
<path d="M194.149 150.14L194.295 150.768C195.95 150.768 197.087 150.587 197.646 150.07C197.659 149.864 197.645 149.658 197.604 149.456C196.515 149.932 195.336 150.165 194.149 150.14Z" fill="white"/>
<path d="M194.386 152.304C196.145 152.304 196.969 151.766 197.346 151.131C196.678 151.128 196.016 151.246 195.391 151.48C194.977 151.641 194.625 151.929 194.386 152.304Z" fill="#DE5753"/>
<path d="M196.871 136.85C194.204 136.745 194.191 140.026 197.185 141.31L196.564 140.165C196.564 140.165 198.658 142.343 201.052 142.022C200.686 141.787 200.385 141.465 200.174 141.085C199.964 140.705 199.85 140.279 199.844 139.844C199.793 139.071 199.463 138.342 198.917 137.792C198.371 137.241 197.644 136.907 196.871 136.85Z" fill="#263238"/>
<path d="M156.352 216.589L159.891 218.795C159.891 218.795 164.449 210.238 167.967 204.172C168.037 204.046 168.106 203.914 168.183 203.788C170.731 199.391 178.178 199.872 178.178 199.872L188.46 223.911L191.95 222.746L189.43 201.806C189.43 201.806 203.781 201.729 208.276 199.712C212.771 197.695 210.426 187.664 210.426 187.664C201.045 185.829 185.361 183.658 185.361 183.658C177.683 183.811 167.639 187.343 164.498 192.425C160.219 199.251 156.352 216.589 156.352 216.589Z" fill="#263238"/>
<path opacity="0.2" d="M167.932 204.172C168.002 204.046 168.071 203.914 168.148 203.788C170.696 199.391 178.144 199.872 178.144 199.872C178.144 199.872 176.385 194.756 177.704 191.308C179.023 187.86 192.362 186.31 192.362 186.31C192.362 186.31 180.084 186.094 173.97 189.158C169.67 191.336 168.337 199.537 167.932 204.172Z" fill="black"/>
<path d="M60.028 226.452C60.1746 227.478 57.3966 228.148 55.142 228.546C55.3235 230.41 56.538 232.287 58.276 234.046C60.4329 232.832 63.5041 231.254 64.0694 231.624C64.6348 231.994 61.5427 234.088 59.5743 235.282C60.98 236.511 62.4704 237.64 64.0345 238.66C64.9978 237.76 66.1285 236.971 66.8265 237.397C67.5245 237.823 67.3361 239.233 66.9941 240.482C69.3394 241.878 71.0913 242.681 71.0913 242.681C71.7728 240.504 72.2954 238.281 72.6548 236.029C72.5362 235.791 72.4175 235.554 72.3128 235.331C71.9359 234.458 72.3128 234.081 72.9271 233.935C73.0944 232.341 73.0944 230.733 72.9271 229.139C70.2817 228.588 67.0569 227.555 68.2644 225.964C68.9624 225.007 70.3584 224.896 71.7125 225.14C71.5218 224.823 71.3022 224.523 71.0564 224.246C66.2263 218.928 62.8619 224.246 62.8619 224.246C60.0699 221.908 56.1192 222.543 55.2677 226.194C56.8033 225.782 59.8116 225.182 60.028 226.452Z" fill="#FCA43C"/>
<path opacity="0.3" d="M60.028 226.452C60.1746 227.478 57.3966 228.148 55.142 228.546C55.3235 230.41 56.538 232.287 58.276 234.046C60.4329 232.832 63.5041 231.254 64.0694 231.624C64.6348 231.994 61.5427 234.088 59.5743 235.282C60.98 236.511 62.4704 237.64 64.0345 238.66C64.9978 237.76 66.1285 236.971 66.8265 237.397C67.5245 237.823 67.3361 239.233 66.9941 240.482C69.3394 241.878 71.0913 242.681 71.0913 242.681C71.7728 240.504 72.2954 238.281 72.6548 236.029C72.5362 235.791 72.4175 235.554 72.3128 235.331C71.9359 234.458 72.3128 234.081 72.9271 233.935C73.0944 232.341 73.0944 230.733 72.9271 229.139C70.2817 228.588 67.0569 227.555 68.2644 225.964C68.9624 225.007 70.3584 224.896 71.7125 225.14C71.5218 224.823 71.3022 224.523 71.0564 224.246C66.2263 218.928 62.8619 224.246 62.8619 224.246C60.0699 221.908 56.1192 222.543 55.2677 226.194C56.8033 225.782 59.8116 225.182 60.028 226.452Z" fill="white"/>
<path d="M66.0169 265.526L65.3189 265.47C65.3189 265.114 68.1807 229.509 60.1886 226.152C59.8082 225.973 59.3913 225.884 58.9709 225.894C58.5505 225.904 58.1382 226.011 57.7665 226.208C54.8768 227.716 53.4947 233.949 53.4808 234.011L52.7828 233.858C52.8456 233.593 54.2556 227.248 57.4315 225.594C57.8939 225.349 58.4064 225.214 58.9294 225.2C59.4523 225.185 59.9715 225.291 60.4468 225.51C68.9136 229.056 66.1425 264.039 66.0169 265.526Z" fill="#FCA43C"/>
<path d="M67.008 264.758C66.8684 263.153 63.6087 225.482 69.7093 221.482C71.1681 220.526 72.5013 220.317 73.5762 220.882C76.4589 222.334 76.8428 228.497 76.8568 228.756L76.1588 228.797C76.1588 228.735 75.7888 222.774 73.2621 221.503C72.3966 221.064 71.3286 221.252 70.0862 222.069C64.3347 225.838 67.6711 264.305 67.706 264.696L67.008 264.758Z" fill="#FCA43C"/>
<path d="M67.9434 267.802C67.8945 266.573 66.8894 237.739 72.4455 235.212C72.9623 234.971 73.5258 234.846 74.0962 234.846C74.6667 234.846 75.2301 234.971 75.747 235.212C79.5581 236.887 81.9103 243.986 82.029 244.286L81.3659 244.502C81.3659 244.433 79.0136 237.397 75.4887 235.847C75.0614 235.644 74.594 235.538 74.1207 235.538C73.6473 235.538 73.18 235.644 72.7526 235.847C68.4948 237.788 68.3552 259.579 68.6623 267.774L67.9434 267.802Z" fill="#FCA43C"/>
<path d="M66.5264 266.482L65.8284 266.406C66.8056 257.82 68.6762 234.954 65.619 232.204C65.4715 232.024 65.2746 231.891 65.0526 231.822C64.8307 231.752 64.5933 231.749 64.3696 231.813C62.3244 232.602 61.075 240.042 60.7679 242.841L60.0699 242.764C60.1885 241.689 61.3053 232.246 64.1183 231.164C64.4612 231.051 64.8296 231.039 65.1789 231.131C65.5281 231.222 65.8434 231.413 66.0866 231.68C70.0443 235.226 66.673 265.24 66.5264 266.482Z" fill="#FCA43C"/>
<path d="M54.8837 250.212H79.9559L77.8619 278.3H56.9777L54.8837 250.212Z" fill="#263238"/>
<path d="M58.297 239.903C58.0317 240.601 56.0843 240.049 54.5557 239.505C54.0322 240.719 54.1508 242.297 54.6045 243.979C56.3495 243.979 58.7925 244.028 59.0089 244.468C59.2253 244.907 56.6078 245.117 54.9815 245.166C55.426 246.407 55.9578 247.615 56.5729 248.781C57.4803 248.558 58.4435 248.453 58.7158 248.949C58.988 249.444 58.3947 250.261 57.7595 250.91C58.7367 252.55 59.5324 253.667 59.5324 253.667C60.6984 252.558 61.7831 251.366 62.7781 250.1C62.7781 249.919 62.7781 249.73 62.7781 249.542C62.8409 248.844 63.1969 248.767 63.6227 248.907C64.2779 247.987 64.8369 247.002 65.2909 245.968C63.8461 244.712 62.2127 242.974 63.504 242.408C64.2788 242.066 65.1374 242.457 65.9121 243.106C65.9046 242.846 65.8718 242.586 65.8144 242.332C64.6627 237.397 60.7609 239.54 60.7609 239.54C59.8326 237.132 57.1871 236.175 55.4072 238.144C56.538 238.395 58.632 239.058 58.297 239.903Z" fill="#FCA43C"/>
<path opacity="0.3" d="M58.297 239.903C58.0317 240.601 56.0843 240.049 54.5557 239.505C54.0322 240.719 54.1508 242.297 54.6045 243.979C56.3495 243.979 58.7925 244.028 59.0089 244.468C59.2253 244.907 56.6078 245.117 54.9815 245.166C55.426 246.407 55.9578 247.615 56.5729 248.781C57.4803 248.558 58.4435 248.453 58.7158 248.949C58.988 249.444 58.3947 250.261 57.7595 250.91C58.7367 252.55 59.5324 253.667 59.5324 253.667C60.6984 252.558 61.7831 251.366 62.7781 250.1C62.7781 249.919 62.7781 249.73 62.7781 249.542C62.8409 248.844 63.1969 248.767 63.6227 248.907C64.2779 247.987 64.8369 247.002 65.2909 245.968C63.8461 244.712 62.2127 242.974 63.504 242.408C64.2788 242.066 65.1374 242.457 65.9121 243.106C65.9046 242.846 65.8718 242.586 65.8144 242.332C64.6627 237.397 60.7609 239.54 60.7609 239.54C59.8326 237.132 57.1871 236.175 55.4072 238.144C56.538 238.395 58.632 239.058 58.297 239.903Z" fill="white"/>
<path d="M76.9126 243.239C76.1329 243.307 75.3643 243.469 74.6232 243.721C74.4211 243.191 74.3079 242.633 74.2881 242.066C74.1276 237.006 77.7781 239.135 79.6627 237.655C80.0944 237.271 80.6025 236.983 81.1535 236.81C81.7045 236.637 82.286 236.582 82.8596 236.65C82.6973 236.929 82.5527 237.218 82.4268 237.515C82.3837 237.626 82.3659 237.746 82.3746 237.864C82.3833 237.983 82.4183 238.099 82.4771 238.202C82.5359 238.306 82.617 238.395 82.7145 238.463C82.8121 238.532 82.9236 238.577 83.0411 238.597C83.5125 238.689 84.0007 238.63 84.4371 238.43C84.5684 238.356 84.6923 238.269 84.807 238.172C85.1133 238.704 85.348 239.274 85.505 239.868C85.6985 240.574 85.8086 241.3 85.8331 242.031C85.547 242.093 85.265 242.173 84.9885 242.269C84.8779 242.315 84.7795 242.387 84.7009 242.477C84.6222 242.568 84.5656 242.676 84.5352 242.792C84.5048 242.908 84.5016 243.029 84.5257 243.147C84.5499 243.264 84.6007 243.375 84.6744 243.469C84.9743 243.774 85.3266 244.022 85.7144 244.202C85.5845 245.013 85.3716 245.808 85.0792 246.575L84.821 246.61C84.6371 246.647 84.4553 246.694 84.2765 246.75C84.1718 246.778 84.0692 246.813 83.9694 246.855C83.8468 246.911 83.74 246.996 83.6584 247.103C83.5768 247.21 83.523 247.336 83.5017 247.469C83.4881 247.601 83.5079 247.733 83.5591 247.855C83.6103 247.977 83.6914 248.084 83.7949 248.167C83.9148 248.253 84.0407 248.33 84.1718 248.397C83.6902 249.234 83 249.931 82.1686 250.421C81.4497 250.084 80.7506 249.707 80.0746 249.291C80.2281 249.088 80.3747 248.886 80.5143 248.676C80.6811 248.449 80.7582 248.168 80.7307 247.888C80.6897 247.61 80.5419 247.36 80.3189 247.19C80.0917 247.019 79.8069 246.944 79.5253 246.981C79.2436 247.017 78.9874 247.162 78.8112 247.385C78.6437 247.636 78.4622 247.874 78.2807 248.083C77.3149 247.374 76.4507 246.535 75.7121 245.591H75.7888C76.2458 245.469 76.7131 245.389 77.1848 245.354C77.4681 245.317 77.725 245.169 77.8991 244.942C78.0732 244.716 78.1502 244.43 78.1132 244.146C78.0762 243.863 77.9281 243.606 77.7017 243.432C77.4752 243.258 77.1889 243.181 76.9056 243.218L76.9126 243.239Z" fill="#FCA43C"/>
<path opacity="0.5" d="M76.9126 243.239C76.1329 243.307 75.3643 243.469 74.6232 243.721C74.4211 243.191 74.3079 242.633 74.2881 242.066C74.1276 237.006 77.7781 239.135 79.6627 237.655C80.0944 237.271 80.6025 236.983 81.1535 236.81C81.7045 236.637 82.286 236.582 82.8596 236.65C82.6973 236.929 82.5527 237.218 82.4268 237.515C82.3837 237.626 82.3659 237.746 82.3746 237.864C82.3833 237.983 82.4183 238.099 82.4771 238.202C82.5359 238.306 82.617 238.395 82.7145 238.463C82.8121 238.532 82.9236 238.577 83.0411 238.597C83.5125 238.689 84.0007 238.63 84.4371 238.43C84.5684 238.356 84.6923 238.269 84.807 238.172C85.1133 238.704 85.348 239.274 85.505 239.868C85.6985 240.574 85.8086 241.3 85.8331 242.031C85.547 242.093 85.265 242.173 84.9885 242.269C84.8779 242.315 84.7795 242.387 84.7009 242.477C84.6222 242.568 84.5656 242.676 84.5352 242.792C84.5048 242.908 84.5016 243.029 84.5257 243.147C84.5499 243.264 84.6007 243.375 84.6744 243.469C84.9743 243.774 85.3266 244.022 85.7144 244.202C85.5845 245.013 85.3716 245.808 85.0792 246.575L84.821 246.61C84.6371 246.647 84.4553 246.694 84.2765 246.75C84.1718 246.778 84.0692 246.813 83.9694 246.855C83.8468 246.911 83.74 246.996 83.6584 247.103C83.5768 247.21 83.523 247.336 83.5017 247.469C83.4881 247.601 83.5079 247.733 83.5591 247.855C83.6103 247.977 83.6914 248.084 83.7949 248.167C83.9148 248.253 84.0407 248.33 84.1718 248.397C83.6902 249.234 83 249.931 82.1686 250.421C81.4497 250.084 80.7506 249.707 80.0746 249.291C80.2281 249.088 80.3747 248.886 80.5143 248.676C80.6811 248.449 80.7582 248.168 80.7307 247.888C80.6897 247.61 80.5419 247.36 80.3189 247.19C80.0917 247.019 79.8069 246.944 79.5253 246.981C79.2436 247.017 78.9874 247.162 78.8112 247.385C78.6437 247.636 78.4622 247.874 78.2807 248.083C77.3149 247.374 76.4507 246.535 75.7121 245.591H75.7888C76.2458 245.469 76.7131 245.389 77.1848 245.354C77.4681 245.317 77.725 245.169 77.8991 244.942C78.0732 244.716 78.1502 244.43 78.1132 244.146C78.0762 243.863 77.9281 243.606 77.7017 243.432C77.4752 243.258 77.1889 243.181 76.9056 243.218L76.9126 243.239Z" fill="white"/>
<path d="M78.3645 225.803C78.7993 225.499 79.2677 225.246 79.7605 225.049C79.6313 224.683 79.4452 224.339 79.2091 224.03C77.0732 221.301 76.103 224.03 74.4487 224.072C74.0575 224.064 73.669 224.138 73.3083 224.289C72.9475 224.441 72.6227 224.666 72.3547 224.951C72.5631 225.025 72.766 225.114 72.962 225.217C73.0331 225.256 73.0947 225.311 73.1421 225.377C73.1896 225.443 73.2218 225.519 73.2365 225.599C73.2512 225.679 73.2479 225.762 73.227 225.84C73.2061 225.919 73.168 225.992 73.1155 226.054C72.902 226.312 72.6144 226.497 72.2919 226.585C72.1921 226.595 72.0915 226.595 71.9918 226.585C72.0629 226.998 72.1896 227.399 72.3687 227.778C72.5805 228.231 72.8402 228.659 73.1435 229.056C73.3227 228.964 73.5068 228.883 73.6949 228.811C73.774 228.785 73.8582 228.778 73.9407 228.79C74.0232 228.802 74.1016 228.834 74.1696 228.882C74.2376 228.93 74.2932 228.994 74.332 229.068C74.3708 229.142 74.3917 229.224 74.3929 229.307C74.3715 229.6 74.2958 229.886 74.1695 230.152C74.6019 230.518 75.0695 230.841 75.5655 231.115L75.7191 231.024C75.8308 230.961 75.9494 230.905 76.0611 230.857C76.1272 230.822 76.1976 230.796 76.2705 230.78C76.3591 230.754 76.4528 230.75 76.543 230.77C76.6333 230.789 76.7172 230.831 76.787 230.891C76.8583 230.955 76.9114 231.036 76.9408 231.127C76.9702 231.218 76.975 231.315 76.9545 231.408C76.9293 231.506 76.8967 231.601 76.8568 231.694C77.4773 231.921 78.1456 231.983 78.7973 231.876C79.0347 231.379 79.2421 230.868 79.4185 230.347C79.251 230.312 79.0834 230.27 78.9229 230.221C78.7337 230.174 78.5678 230.06 78.4552 229.9C78.354 229.733 78.3191 229.534 78.3575 229.342C78.4009 229.152 78.5176 228.986 78.6823 228.882C78.847 228.777 79.0464 228.742 79.237 228.783C79.4324 228.839 79.6349 228.888 79.8373 228.93C80.0336 228.134 80.1182 227.314 80.0886 226.494H80.0397C79.7406 226.634 79.4555 226.803 79.1881 226.997C79.0234 227.101 78.8238 227.136 78.6334 227.093C78.4429 227.051 78.2771 226.934 78.1726 226.77C78.068 226.605 78.0331 226.405 78.0756 226.215C78.1182 226.024 78.2346 225.859 78.3994 225.754L78.3645 225.803Z" fill="#FCA43C"/>
<path opacity="0.3" d="M78.3645 225.803C78.7993 225.499 79.2677 225.246 79.7605 225.049C79.6313 224.683 79.4452 224.339 79.2091 224.03C77.0732 221.301 76.103 224.03 74.4487 224.072C74.0575 224.064 73.669 224.138 73.3083 224.289C72.9475 224.441 72.6227 224.666 72.3547 224.951C72.5631 225.025 72.766 225.114 72.962 225.217C73.0331 225.256 73.0947 225.311 73.1421 225.377C73.1896 225.443 73.2218 225.519 73.2365 225.599C73.2512 225.679 73.2479 225.762 73.227 225.84C73.2061 225.919 73.168 225.992 73.1155 226.054C72.902 226.312 72.6144 226.497 72.2919 226.585C72.1921 226.595 72.0915 226.595 71.9918 226.585C72.0629 226.998 72.1896 227.399 72.3687 227.778C72.5805 228.231 72.8402 228.659 73.1435 229.056C73.3227 228.964 73.5068 228.883 73.6949 228.811C73.774 228.785 73.8582 228.778 73.9407 228.79C74.0232 228.802 74.1016 228.834 74.1696 228.882C74.2376 228.93 74.2932 228.994 74.332 229.068C74.3708 229.142 74.3917 229.224 74.3929 229.307C74.3715 229.6 74.2958 229.886 74.1695 230.152C74.6019 230.518 75.0695 230.841 75.5655 231.115L75.7191 231.024C75.8308 230.961 75.9494 230.905 76.0611 230.857C76.1272 230.822 76.1976 230.796 76.2705 230.78C76.3591 230.754 76.4528 230.75 76.543 230.77C76.6333 230.789 76.7172 230.831 76.787 230.891C76.8583 230.955 76.9114 231.036 76.9408 231.127C76.9702 231.218 76.975 231.315 76.9545 231.408C76.9293 231.506 76.8967 231.601 76.8568 231.694C77.4773 231.921 78.1456 231.983 78.7973 231.876C79.0347 231.379 79.2421 230.868 79.4185 230.347C79.251 230.312 79.0834 230.27 78.9229 230.221C78.7337 230.174 78.5678 230.06 78.4552 229.9C78.354 229.733 78.3191 229.534 78.3575 229.342C78.4009 229.152 78.5176 228.986 78.6823 228.882C78.847 228.777 79.0464 228.742 79.237 228.783C79.4324 228.839 79.6349 228.888 79.8373 228.93C80.0336 228.134 80.1182 227.314 80.0886 226.494H80.0397C79.7406 226.634 79.4555 226.803 79.1881 226.997C79.0234 227.101 78.8238 227.136 78.6334 227.093C78.4429 227.051 78.2771 226.934 78.1726 226.77C78.068 226.605 78.0331 226.405 78.0756 226.215C78.1182 226.024 78.2346 225.859 78.3994 225.754L78.3645 225.803Z" fill="white"/>
<path d="M57.934 230.863C57.7874 231.89 60.5655 232.567 62.82 232.957C62.6385 234.821 61.424 236.706 59.686 238.465C57.5292 237.25 54.458 235.673 53.8926 236.036C53.3272 236.399 56.4194 238.5 58.3877 239.7C56.982 240.929 55.4916 242.058 53.9275 243.078C52.9643 242.171 51.8335 241.382 51.1355 241.808C50.4375 242.234 50.626 243.651 50.968 244.893C48.6227 246.289 46.8707 247.092 46.8707 247.092C46.2098 244.909 45.7083 242.681 45.37 240.426C45.4887 240.196 45.6073 239.958 45.712 239.728C46.089 238.856 45.712 238.486 45.0978 238.332C44.9305 236.74 44.9305 235.136 45.0978 233.544C47.7432 232.985 50.968 231.959 49.7604 230.368C49.0624 229.405 47.7013 229.3 46.3123 229.537C46.503 229.22 46.7227 228.921 46.9684 228.644C51.7986 223.332 55.163 228.644 55.163 228.644C57.955 226.313 61.9056 226.941 62.7572 230.591C61.1239 230.2 58.1085 229.6 57.934 230.863Z" fill="#FCA43C"/>
<path opacity="0.5" d="M57.934 230.863C57.7874 231.89 60.5655 232.567 62.82 232.957C62.6385 234.821 61.424 236.706 59.686 238.465C57.5292 237.25 54.458 235.673 53.8926 236.036C53.3272 236.399 56.4194 238.5 58.3877 239.7C56.982 240.929 55.4916 242.058 53.9275 243.078C52.9643 242.171 51.8335 241.382 51.1355 241.808C50.4375 242.234 50.626 243.651 50.968 244.893C48.6227 246.289 46.8707 247.092 46.8707 247.092C46.2098 244.909 45.7083 242.681 45.37 240.426C45.4887 240.196 45.6073 239.958 45.712 239.728C46.089 238.856 45.712 238.486 45.0978 238.332C44.9305 236.74 44.9305 235.136 45.0978 233.544C47.7432 232.985 50.968 231.959 49.7604 230.368C49.0624 229.405 47.7013 229.3 46.3123 229.537C46.503 229.22 46.7227 228.921 46.9684 228.644C51.7986 223.332 55.163 228.644 55.163 228.644C57.955 226.313 61.9056 226.941 62.7572 230.591C61.1239 230.2 58.1085 229.6 57.934 230.863Z" fill="white"/>
<path d="M92.3594 176.287L80.7447 260.424L144.27 254.121L118.144 176.091L92.3594 176.287Z" fill="#FCA43C"/>
<path opacity="0.4" d="M92.3594 176.287L80.7447 260.424L144.27 254.121L118.144 176.091L92.3594 176.287Z" fill="white"/>
<path d="M142.783 143.09L153.602 137.611C155.32 137.739 157.047 137.659 158.746 137.373C161.538 136.892 162.138 136.864 161.803 134.665C161.468 132.466 161.936 129.535 161.105 129.228C160.275 128.921 154.049 131.803 153.037 133.486L142.504 136.976L142.783 143.09Z" fill="#E4897B"/>
<path d="M114.06 131.538V144.102C114.06 144.102 116.741 144.989 120.07 145.917C123.888 146.978 128.558 148.095 130.987 147.976C135.524 147.753 152.694 138.644 152.694 138.644L151.18 133.164C151.18 133.164 131.336 140.144 129.242 139.761C127.148 139.377 114.06 131.538 114.06 131.538Z" fill="#FCA43C"/>
<path opacity="0.7" d="M114.06 131.538V144.102C114.06 144.102 116.741 144.989 120.07 145.917C123.888 146.978 128.558 148.095 130.987 147.976C135.524 147.753 152.694 138.644 152.694 138.644L151.18 133.164C151.18 133.164 131.336 140.144 129.242 139.761C127.148 139.377 114.06 131.538 114.06 131.538Z" fill="white"/>
<path opacity="0.2" d="M114.06 137.66V144.109C114.06 144.109 116.741 144.996 120.07 145.924C118.841 142.183 115.777 139.132 114.06 137.66Z" fill="black"/>
<path d="M109.74 284.295L105.607 282.243L107.841 276.031L109.879 270.384L115.198 271.997L112.315 278.502L109.74 284.295Z" fill="#E4897B"/>
<path opacity="0.2" d="M110.961 281.427L106.647 279.354L108.581 273.651L113.9 275.256L110.961 281.427Z" fill="black"/>
<path d="M104.965 281.294C105.203 280.847 110.626 283.981 110.626 283.981C110.626 283.981 112.336 289.195 115.289 291.659C118.241 294.123 115.379 295.149 111.638 293.328L102.383 288.742C99.7233 287.422 102.508 285.978 104.965 281.294Z" fill="#263238"/>
<path d="M113.425 287.004C112.629 287.185 111.177 285.391 110.891 285.028C110.887 285.01 110.887 284.991 110.891 284.972C110.888 284.954 110.888 284.935 110.891 284.917C110.888 284.898 110.888 284.879 110.891 284.861C110.889 284.842 110.889 284.823 110.891 284.805C110.947 284.756 112.064 283.688 112.985 283.751C113.122 283.76 113.255 283.799 113.375 283.864C113.496 283.929 113.601 284.019 113.683 284.128C113.879 284.379 113.928 284.596 113.823 284.784C113.718 284.972 113.125 285.168 112.539 285.182C112.998 285.319 113.409 285.583 113.725 285.943C113.778 286.019 113.815 286.106 113.835 286.197C113.854 286.288 113.855 286.382 113.837 286.473C113.821 286.574 113.783 286.669 113.727 286.754C113.67 286.838 113.596 286.909 113.509 286.962L113.425 287.004ZM113.348 286.683C113.383 286.683 113.481 286.648 113.53 286.403C113.539 286.355 113.538 286.305 113.528 286.257C113.517 286.209 113.496 286.164 113.467 286.124C113.181 285.691 112.148 285.363 111.45 285.189C112.106 285.95 112.978 286.766 113.348 286.683ZM111.415 284.784C112.399 284.882 113.418 284.847 113.558 284.596C113.599 284.526 113.509 284.386 113.446 284.309C113.39 284.236 113.318 284.175 113.236 284.132C113.154 284.088 113.064 284.063 112.971 284.058C112.711 284.059 112.454 284.124 112.224 284.247C111.935 284.394 111.663 284.575 111.415 284.784Z" fill="#FCA43C"/>
<path d="M117.096 179.316C117.096 179.316 130.742 211.557 132.885 225.705C135.028 239.854 113.209 278.46 113.209 278.46L106.857 274.516C106.857 274.516 117.662 235.428 117.662 229.084C117.662 222.739 103.604 193.597 103.604 193.597C103.604 193.597 102.25 181.857 117.096 179.316Z" fill="#263238"/>
<g opacity="0.1">
<path d="M117.096 179.316C117.096 179.316 130.742 211.557 132.885 225.705C135.028 239.854 113.209 278.46 113.209 278.46L106.857 274.516C106.857 274.516 117.662 235.428 117.662 229.084C117.662 222.739 103.604 193.597 103.604 193.597C103.604 193.597 102.25 181.857 117.096 179.316Z" fill="white"/>
</g>
<path d="M106.089 273.937L114.982 277.49L112.867 280.561L105.084 277.567L106.089 273.937Z" fill="#263238"/>
<path d="M115.372 165.384L92.834 167.332C92.3036 158.956 91.7661 153.56 86.8103 138.637C86.3775 137.331 85.9099 135.942 85.4143 134.449C88.4712 133.473 91.5948 132.719 94.7605 132.194C98.103 131.603 101.482 131.244 104.875 131.119C109.265 131.119 114.291 131.587 114.291 131.587C114.291 131.587 114.688 131.845 115.135 136.473C115.547 140.884 116.28 149.519 115.372 165.384Z" fill="#FCA43C"/>
<path opacity="0.3" d="M115.372 165.384L92.834 167.339C92.6314 162.763 92.0595 158.211 91.1239 153.728C90.1237 149.29 88.8935 144.908 87.4385 140.598C87.243 139.963 87.0266 139.307 86.8033 138.637C86.3705 137.331 85.9098 135.949 85.4073 134.449C88.466 133.479 91.5891 132.726 94.7535 132.194C98.0957 131.602 101.475 131.245 104.868 131.126C109.258 131.091 114.284 131.594 114.284 131.594C114.284 131.594 114.681 131.852 115.128 136.48C115.547 140.884 116.28 149.519 115.372 165.384Z" fill="black"/>
<path d="M102.641 136.354C97.0569 135.656 95.4236 133.269 95.4236 133.269C98.9136 129.947 96.0169 124.195 96.0169 124.195L102.704 125.445C102.551 126.368 102.463 127.301 102.438 128.237C102.39 132.292 104.225 132.334 104.225 132.334C105.398 134.546 102.641 136.354 102.641 136.354Z" fill="#E4897B"/>
<path opacity="0.2" d="M102.704 125.438C102.551 126.361 102.463 127.294 102.439 128.23C99.2207 127.483 96.0169 124.167 96.0169 124.167L102.704 125.438Z" fill="black"/>
<path d="M105.349 287.157H100.735L99.9746 280.729L99.2905 274.831L104.77 273.937L105.077 280.938L105.349 287.157Z" fill="#E4897B"/>
<path d="M99.7442 286.878C99.7442 286.368 106.026 286.773 106.026 286.773C106.026 286.773 109.872 290.682 113.607 291.562C117.341 292.441 115.254 294.682 111.08 294.682H100.749C97.7689 294.661 99.6186 292.134 99.7442 286.878Z" fill="#263238"/>
<path opacity="0.1" d="M99.7442 286.878C99.7442 286.368 106.026 286.773 106.026 286.773C106.026 286.773 109.872 290.682 113.607 291.562C117.341 292.441 115.254 294.682 111.08 294.682H100.749C97.7689 294.661 99.6186 292.134 99.7442 286.878Z" fill="white"/>
<path d="M106.71 287.576L106.654 287.541C106.651 287.525 106.651 287.508 106.654 287.492C106.651 287.476 106.651 287.46 106.654 287.443C106.647 287.421 106.647 287.396 106.654 287.374C106.654 287.297 107.199 285.852 108.05 285.503C108.177 285.444 108.315 285.414 108.455 285.414C108.595 285.414 108.733 285.444 108.86 285.503C109.146 285.636 109.286 285.817 109.272 286.026C109.272 286.354 108.811 286.683 108.302 286.955C108.772 286.878 109.255 286.931 109.698 287.108C109.779 287.153 109.851 287.214 109.908 287.287C109.966 287.361 110.008 287.444 110.033 287.534C110.077 287.647 110.086 287.771 110.059 287.89C110.032 288.008 109.969 288.115 109.879 288.197C109.719 288.312 109.524 288.366 109.328 288.351C108.416 288.25 107.53 287.987 106.71 287.576ZM107.283 287.471C108.204 287.862 109.377 288.211 109.642 287.967C109.642 287.967 109.747 287.883 109.684 287.639C109.655 287.543 109.59 287.463 109.502 287.415C109.283 287.318 109.044 287.273 108.804 287.283C108.293 287.288 107.783 287.344 107.283 287.45V287.471ZM108.148 285.803C107.652 286.122 107.274 286.595 107.073 287.15C108.002 286.794 108.895 286.313 108.909 286.026C108.909 285.943 108.769 285.859 108.686 285.824C108.597 285.778 108.499 285.754 108.399 285.754C108.315 285.747 108.229 285.756 108.148 285.782V285.803Z" fill="#FCA43C"/>
<path opacity="0.2" d="M105.189 283.346L100.372 284.086L99.5139 278.118L104.993 277.19L105.189 283.346Z" fill="black"/>
<path opacity="0.2" d="M110.061 207.634C106.745 200.11 103.604 193.597 103.604 193.597C103.508 192.256 103.64 190.908 103.995 189.612C104.469 189.305 104.994 189.086 105.545 188.963C105.545 188.963 109.586 195.3 110.061 207.634Z" fill="black"/>
<path d="M105.74 188.963L106.627 234.333V280.798H98.7601C80.2701 192.788 92.9597 170.717 92.9597 170.717H93.0085C93.0085 170.717 93.0085 170.64 93.0434 170.612C96.0099 164.023 115.463 168.881 115.463 168.881C116.859 174.346 117.76 185.445 117.76 185.445L105.74 188.963Z" fill="#263238"/>
<path opacity="0.1" d="M105.74 188.963L106.627 234.333V280.798H98.7601C80.2701 192.788 92.9597 170.717 92.9597 170.717H93.0085C93.0085 170.717 93.0085 170.64 93.0434 170.612C96.0099 164.023 115.463 168.881 115.463 168.881C116.859 174.346 117.76 185.445 117.76 185.445L105.74 188.963Z" fill="white"/>
<path d="M92.9736 167.318V170.619L115.498 168.888V164.993L92.9736 167.318Z" fill="#263238"/>
<path d="M100.411 165.93L99.2953 165.987L99.5855 171.676L100.701 171.619L100.411 165.93Z" fill="#263238"/>
<path d="M110.168 165.785L105.246 166.226L105.58 169.959L110.502 169.518L110.168 165.785Z" fill="white"/>
<path d="M114.157 164.429L113.042 164.486L113.332 170.174L114.447 170.117L114.157 164.429Z" fill="#263238"/>
<path opacity="0.2" d="M100.411 165.93L99.2953 165.987L99.5855 171.676L100.701 171.619L100.411 165.93Z" fill="white"/>
<path opacity="0.2" d="M114.157 164.429L113.042 164.486L113.332 170.174L114.447 170.117L114.157 164.429Z" fill="white"/>
<path d="M97.7689 279.71L107.436 278.293L106.626 282.153L98.6483 283.227L97.7689 279.71Z" fill="#263238"/>
<path d="M105.258 131.685L102.048 134.246L95.996 132.983L97.2663 138.532L108.148 136.941L105.258 131.685Z" fill="#FCA43C"/>
<path opacity="0.3" d="M105.258 131.685L102.048 134.246L95.996 132.983L97.2663 138.532L108.148 136.941L105.258 131.685Z" fill="black"/>
<path d="M102.076 134.246L99.0323 138.532L93.9857 134.435L96.5893 131.056L102.076 134.246Z" fill="#FCA43C"/>
<path d="M102.076 134.246L105.621 137.157L104.875 132.599L102.829 129.989L102.076 134.246Z" fill="#FCA43C"/>
<path d="M85.4143 134.484L96.2542 131.343L105.258 169.67L102.753 264.71L80.7656 260.745C82.5804 225.845 85.4981 193.123 92.6316 168.609L85.4143 134.484Z" fill="#FCA43C"/>
<path opacity="0.8" d="M85.4143 134.484L96.2263 131.343L105.238 169.67L102.732 264.71L80.7447 260.745C82.5595 225.845 85.4701 193.123 92.6107 168.609L85.4143 134.484Z" fill="white"/>
<path opacity="0.7" d="M93.5599 132.069L92.9247 142.259L96.7498 145.714L93.6088 148.625L105.021 179.707L105.286 169.677L96.2542 131.343L93.5599 132.069Z" fill="white"/>
<path d="M114.291 131.622C118.527 143.488 117.781 155.214 115.498 168.455L144.291 254.442L128.237 261.862C122.827 224.365 117.648 183.944 110.466 168.588C110.263 155.221 110.612 141.729 102.913 130.079L114.291 131.622Z" fill="#FCA43C"/>
<path opacity="0.8" d="M114.291 131.622C118.527 143.488 117.781 155.214 115.498 168.455L144.291 254.442L128.237 261.862C122.995 224.065 117.85 185.27 110.466 168.588C110.263 155.221 110.612 141.729 102.913 130.079L114.291 131.622Z" fill="white"/>
<path opacity="0.7" d="M102.899 130.079L105.286 130.4L112.378 139.195L110.452 142.336L113.153 144.43L114.905 182.066C113.742 177.464 112.254 172.951 110.452 168.56C110.179 150.307 108.804 138.365 102.899 130.079Z" fill="white"/>
<path d="M88.9531 109.586C89.2214 108.965 89.6615 108.433 90.2216 108.053C90.7818 107.674 91.4387 107.462 92.1151 107.443H95.6051L92.9666 114.339L93.1202 122.981L91.9545 120.349L91.6265 122.981C91.6265 122.981 88.8345 116.992 88.646 115.226C88.4576 113.46 88.0876 111.722 88.9531 109.586Z" fill="#263238"/>
<path d="M99.6605 105.852C105.6 105.531 107.687 108.602 108.455 114.702C109.419 122.324 108.023 127.853 100.505 126.624C90.2933 124.942 89.7908 106.396 99.6605 105.852Z" fill="#E4897B"/>
<path d="M104.595 114.584C105.123 115.442 105.748 116.236 106.459 116.95C106.299 117.205 106.072 117.412 105.802 117.546C105.532 117.68 105.231 117.737 104.93 117.711L104.595 114.584Z" fill="#A24E3F"/>
<path d="M100.938 114.291C100.938 114.779 100.742 115.198 100.414 115.219C100.086 115.24 99.8001 114.87 99.7582 114.388C99.7163 113.907 99.9537 113.481 100.275 113.46C100.596 113.439 100.896 113.809 100.938 114.291Z" fill="#2E353A"/>
<path d="M100.142 113.495L101.175 112.992C101.175 112.992 100.714 113.928 100.142 113.495Z" fill="#2E353A"/>
<path d="M106.989 113.718C107.024 114.207 106.794 114.619 106.466 114.646C106.138 114.674 105.845 114.297 105.81 113.809C105.775 113.32 106.005 112.908 106.326 112.881C106.647 112.853 106.948 113.23 106.989 113.718Z" fill="#2E353A"/>
<path d="M106.194 112.915L107.22 112.42C107.22 112.42 106.794 113.348 106.194 112.915Z" fill="#2E353A"/>
<path d="M98.1249 111.485C98.0717 111.487 98.0195 111.469 97.9783 111.436C97.9511 111.417 97.928 111.393 97.9103 111.365C97.8927 111.337 97.8809 111.306 97.8757 111.273C97.8705 111.241 97.8719 111.207 97.88 111.175C97.888 111.143 97.9024 111.113 97.9224 111.087C98.2598 110.695 98.6842 110.387 99.1617 110.188C99.6392 109.989 100.157 109.905 100.673 109.942C100.739 109.949 100.799 109.981 100.842 110.032C100.885 110.083 100.907 110.148 100.903 110.214C100.9 110.247 100.891 110.279 100.876 110.309C100.861 110.338 100.84 110.365 100.815 110.386C100.789 110.407 100.76 110.424 100.729 110.434C100.697 110.444 100.664 110.447 100.631 110.445C100.201 110.418 99.7711 110.488 99.3724 110.65C98.9737 110.812 98.6165 111.061 98.3273 111.38C98.3046 111.412 98.2743 111.439 98.239 111.457C98.2038 111.475 98.1646 111.485 98.1249 111.485Z" fill="#2E353A"/>
<path d="M107.352 110.319C107.306 110.318 107.261 110.306 107.22 110.284C106.909 110.065 106.553 109.921 106.178 109.862C105.803 109.802 105.419 109.83 105.056 109.942C104.997 109.957 104.934 109.95 104.879 109.923C104.824 109.896 104.781 109.85 104.756 109.794C104.732 109.738 104.729 109.675 104.746 109.616C104.764 109.558 104.802 109.507 104.854 109.474C105.291 109.332 105.755 109.292 106.21 109.357C106.665 109.423 107.099 109.592 107.478 109.851C107.525 109.879 107.562 109.922 107.583 109.973C107.604 110.024 107.607 110.08 107.593 110.133C107.579 110.186 107.548 110.233 107.504 110.266C107.461 110.3 107.407 110.318 107.352 110.319Z" fill="#2E353A"/>
<path d="M104.197 120.091C103.952 120.774 103.756 121.474 103.611 122.185H103.227C101.489 122.108 100.714 121.487 100.372 120.838C100.216 120.516 100.137 120.162 100.142 119.805C100.14 119.599 100.168 119.395 100.226 119.197C101.276 119.726 102.429 120.021 103.604 120.063C104.002 120.091 104.197 120.091 104.197 120.091Z" fill="#2E353A"/>
<path d="M103.604 120.056L103.416 120.67C101.775 120.593 100.624 120.314 100.142 119.798C100.14 119.592 100.168 119.388 100.226 119.19C101.276 119.719 102.429 120.014 103.604 120.056Z" fill="white"/>
<path d="M103.227 122.15C101.489 122.073 100.714 121.452 100.372 120.803C101.032 120.85 101.679 121.011 102.285 121.277C102.683 121.462 103.012 121.768 103.227 122.15Z" fill="#DE5753"/>
<path d="M93.7135 116.224C93.7135 116.224 96.2263 111.191 95.5981 107.443C95.5981 107.443 107.108 101.992 108.344 113.907C108.344 113.907 108.909 103.234 98.6833 103.555C88.4576 103.876 89.3231 118.821 94.8373 122.981C94.8373 122.981 92.136 119.358 93.7135 116.224Z" fill="#263238"/>
<path d="M94.7535 117.425C94.7072 117.085 94.5944 116.758 94.4216 116.463C94.2487 116.167 94.0192 115.908 93.7463 115.701C93.4733 115.495 93.1622 115.344 92.8308 115.257C92.4994 115.171 92.1542 115.151 91.8149 115.198C89.9862 115.498 89.3161 119.323 93.9438 119.979C94.6069 120.056 94.928 119.414 94.7535 117.425Z" fill="#E4897B"/>
<path d="M92.136 107.443C92.136 107.443 91.1728 104.33 93.8391 102.522C96.5055 100.714 101.189 101.503 104.218 102.522C107.248 103.541 110.284 112.42 110.284 112.42C108.781 110.195 106.98 108.187 104.93 106.452L96.5544 106.375L95.626 107.443H92.136Z" fill="#263238"/>
<path d="M87.9829 110.514C81.4636 107.178 73.1364 113.376 76.6404 118.388C77.1779 125.766 82.0429 125.996 84.9396 120.915C89.1276 117.522 88.0457 114.584 86.3984 111.694C86.0704 112.825 86.7963 114.758 82.5874 116.301L81.6241 115.7C84.5557 112.21 86.3984 113.146 88.3319 113.788L87.9829 110.514Z" fill="#2E353A"/>
<path d="M73.1993 123.183C74.4208 115.617 77.0453 110.619 82.0011 109.795L83.9555 109.572C78.7763 110.675 75.3421 115.533 73.1993 123.183Z" fill="#2E353A"/>
<path d="M76.2216 122.625C75.2444 115.079 78.1341 110.807 84.5976 109.593L81.2612 109.942C76.082 111.917 74.7558 116.371 76.2216 122.625Z" fill="#2E353A"/>
<path d="M87.7316 110.452L88.0387 113.739C88.1022 113.815 88.1829 113.874 88.2741 113.911C88.3652 113.949 88.464 113.964 88.5622 113.955C88.6563 113.948 88.747 113.917 88.8253 113.864C88.9036 113.812 88.9669 113.74 89.009 113.655L88.7786 110.396C88.7408 110.292 88.6713 110.202 88.5799 110.139C88.4885 110.077 88.3798 110.044 88.2691 110.047C88.1526 110.063 88.0423 110.109 87.9484 110.18C87.8544 110.251 87.7798 110.344 87.7316 110.452Z" fill="#FCA43C"/>
<path d="M133.262 160.631C133.619 160.688 133.952 160.85 134.217 161.096C134.482 161.342 134.669 161.661 134.753 162.013C134.836 162.365 134.814 162.734 134.688 163.073C134.562 163.412 134.339 163.706 134.045 163.918C133.752 164.13 133.403 164.251 133.041 164.264C132.68 164.277 132.322 164.183 132.014 163.993C131.706 163.804 131.461 163.527 131.311 163.198C131.16 162.869 131.111 162.503 131.168 162.145C131.245 161.667 131.509 161.239 131.902 160.955C132.294 160.671 132.784 160.554 133.262 160.631Z" fill="#263238"/>
<g opacity="0.6">
<path d="M133.262 160.631C133.619 160.688 133.952 160.85 134.217 161.096C134.482 161.342 134.669 161.661 134.753 162.013C134.836 162.365 134.814 162.734 134.688 163.073C134.562 163.412 134.339 163.706 134.045 163.918C133.752 164.13 133.403 164.251 133.041 164.264C132.68 164.277 132.322 164.183 132.014 163.993C131.706 163.804 131.461 163.527 131.311 163.198C131.16 162.869 131.111 162.503 131.168 162.145C131.245 161.667 131.509 161.239 131.902 160.955C132.294 160.671 132.784 160.554 133.262 160.631Z" fill="white"/>
</g>
<path d="M132.278 161.692C132.477 161.725 132.661 161.816 132.808 161.953C132.955 162.091 133.058 162.269 133.104 162.465C133.15 162.661 133.137 162.866 133.066 163.054C132.995 163.243 132.871 163.406 132.707 163.524C132.544 163.642 132.349 163.708 132.148 163.716C131.947 163.723 131.748 163.67 131.577 163.565C131.405 163.459 131.269 163.305 131.185 163.122C131.101 162.939 131.074 162.735 131.105 162.536C131.127 162.404 131.174 162.277 131.244 162.162C131.315 162.048 131.407 161.949 131.516 161.87C131.625 161.792 131.748 161.736 131.879 161.705C132.01 161.674 132.146 161.67 132.278 161.692Z" fill="#263238"/>
<g opacity="0.7">
<path d="M132.278 161.692C132.477 161.725 132.661 161.816 132.808 161.953C132.955 162.091 133.058 162.269 133.104 162.465C133.15 162.661 133.137 162.866 133.066 163.054C132.995 163.243 132.871 163.406 132.707 163.524C132.544 163.642 132.349 163.708 132.148 163.716C131.947 163.723 131.748 163.67 131.577 163.565C131.405 163.459 131.269 163.305 131.185 163.122C131.101 162.939 131.074 162.735 131.105 162.536C131.127 162.404 131.174 162.277 131.244 162.162C131.315 162.048 131.407 161.949 131.516 161.87C131.625 161.792 131.748 161.736 131.879 161.705C132.01 161.674 132.146 161.67 132.278 161.692Z" fill="white"/>
</g>
<path d="M113.327 200.389C112.626 200.365 111.955 200.099 111.429 199.635C108.846 197.541 107.115 191.098 107.003 186.373C106.738 177.599 108.239 168.225 109.439 160.694C110.368 154.893 111.17 149.895 110.835 147.215C110.975 143.369 108.19 136.047 105.503 128.942L105.014 127.65L105.663 127.406L106.152 128.69C108.867 135.852 111.673 143.251 111.526 147.18C111.903 149.902 111.136 154.712 110.13 160.798C108.93 168.302 107.436 177.641 107.701 186.352C107.813 190.966 109.516 197.199 111.889 199.111C112.131 199.336 112.421 199.503 112.736 199.601C113.051 199.699 113.385 199.725 113.711 199.677C118.171 199.53 122.562 193.213 127.19 180.37C128.586 177.578 129.018 174.786 129.57 171.219C129.87 169.272 130.212 167.031 130.77 164.581L131.468 164.728C130.917 167.192 130.575 169.391 130.275 171.324C129.716 174.94 129.27 177.795 127.846 180.649C123.057 193.911 118.59 200.193 113.802 200.368C113.645 200.391 113.486 200.398 113.327 200.389Z" fill="#263238"/>
<g opacity="0.2">
<path d="M113.327 200.389C112.626 200.365 111.955 200.099 111.429 199.635C108.846 197.541 107.115 191.098 107.003 186.373C106.738 177.599 108.239 168.225 109.439 160.694C110.368 154.893 111.17 149.895 110.835 147.215C110.975 143.369 108.19 136.047 105.503 128.942L105.014 127.65L105.663 127.406L106.152 128.69C108.867 135.852 111.673 143.251 111.526 147.18C111.903 149.902 111.136 154.712 110.13 160.798C108.93 168.302 107.436 177.641 107.701 186.352C107.813 190.966 109.516 197.199 111.889 199.111C112.131 199.336 112.421 199.503 112.736 199.601C113.051 199.699 113.385 199.725 113.711 199.677C118.171 199.53 122.562 193.213 127.19 180.37C128.586 177.578 129.018 174.786 129.57 171.219C129.87 169.272 130.212 167.031 130.77 164.581L131.468 164.728C130.917 167.192 130.575 169.391 130.275 171.324C129.716 174.94 129.27 177.795 127.846 180.649C123.057 193.911 118.59 200.193 113.802 200.368C113.645 200.391 113.486 200.398 113.327 200.389Z" fill="white"/>
</g>
<path d="M92.9666 117.962C92.9666 117.962 94.5371 125.305 95.7028 126.499C96.8684 127.692 101.07 129.2 103.841 128.097C106.613 126.994 108.595 126.366 109.384 124.349C109.594 123.711 109.647 123.031 109.536 122.368C109.425 121.705 109.155 121.079 108.748 120.545V119.1C108.748 119.1 110.738 122.129 110.075 124.314C109.412 126.499 107.038 128.02 103.876 128.893C100.714 129.765 95.8494 128.488 94.8582 126.799C93.867 125.11 92.1081 118.178 92.1081 118.178L92.9666 117.962Z" fill="#263238"/>
<path opacity="0.5" d="M92.9666 117.962C92.9666 117.962 94.5371 125.305 95.7028 126.499C96.8684 127.692 101.07 129.2 103.841 128.097C106.613 126.994 108.595 126.366 109.384 124.349C109.594 123.711 109.647 123.031 109.536 122.368C109.425 121.705 109.155 121.079 108.748 120.545V119.1C108.748 119.1 110.738 122.129 110.075 124.314C109.412 126.499 107.038 128.02 103.876 128.893C100.714 129.765 95.8494 128.488 94.8582 126.799C93.867 125.11 92.1081 118.178 92.1081 118.178L92.9666 117.962Z" fill="white"/>
<path d="M125.249 165.014L130.694 163.234L129.779 169.872C129.779 169.872 125.898 169.97 123.762 166.941L125.249 165.014Z" fill="#E4897B"/>
<path d="M135.977 165.21L134.379 170.012L129.779 169.872L130.694 163.234L135.977 165.21Z" fill="#E4897B"/>
<path d="M120.566 161.894L127.231 164.372L125.801 168.406L119.023 165.81L120.566 161.894Z" fill="#E4897B"/>
<path d="M92.0034 135.51C90.1118 132.794 86.203 133.164 84.5069 135.217C82.8108 137.269 83.4529 140.801 85.3236 143.683C89.4069 151.459 97.7619 158.788 101.029 160.303L123.127 168.441L124.935 162.487L104.372 152.974C101.357 150.929 96.4218 142.301 92.0034 135.51Z" fill="#FCA43C"/>
<path opacity="0.7" d="M92.0034 135.51C90.1118 132.794 86.203 133.164 84.5069 135.217C82.8108 137.269 83.4529 140.801 85.3236 143.683C89.4069 151.459 97.7619 158.788 101.029 160.303L123.127 168.441L124.935 162.487L104.372 152.974C101.357 150.929 96.4218 142.301 92.0034 135.51Z" fill="white"/>
<path d="M168.023 127.608L168.372 128.83L170.738 127.301L170.305 123.944L169.614 124.139L169.754 126.848L168.023 127.608Z" fill="#263238"/>
<path opacity="0.1" d="M168.023 127.608L168.372 128.83L170.738 127.301L170.305 123.944L169.614 124.139L169.754 126.848L168.023 127.608Z" fill="white"/>
<path d="M166.345 113.228L167.191 112.988L166.675 111.168L165.829 111.408L166.345 113.228Z" fill="#263238"/>
<path d="M146.998 116.119L165.236 110.944L165.099 110.461L146.861 115.635L146.998 116.119Z" fill="#263238"/>
<path d="M166.803 110.472L185.042 105.301L184.905 104.818L166.666 109.989L166.803 110.472Z" fill="#263238"/>
<path d="M165.418 111.52L167.036 111.061L166.657 109.725L165.039 110.184L165.418 111.52Z" fill="#263238"/>
<path opacity="0.1" d="M165.418 111.52L167.036 111.061L166.657 109.725L165.039 110.184L165.418 111.52Z" fill="white"/>
<path d="M166.543 128.432C166.934 129.828 168.071 130.68 169.084 130.393C170.096 130.107 170.605 128.76 170.214 127.385C169.823 126.01 168.686 125.137 167.674 125.424C166.661 125.71 166.124 127.036 166.543 128.432Z" fill="#263238"/>
<path opacity="0.2" d="M166.822 128.244C167.059 129.074 167.75 129.64 168.365 129.43C168.694 129.278 168.951 129.003 169.082 128.664C169.212 128.325 169.205 127.949 169.063 127.615C168.825 126.785 168.134 126.219 167.52 126.429C167.191 126.581 166.933 126.856 166.803 127.195C166.673 127.533 166.68 127.91 166.822 128.244Z" fill="white"/>
<path d="M175.847 125.794C176.238 127.19 177.376 128.048 178.395 127.762C179.414 127.476 179.916 126.129 179.526 124.754C179.135 123.378 177.997 122.499 176.985 122.792C175.973 123.085 175.463 124.425 175.847 125.794Z" fill="#263238"/>
<path opacity="0.2" d="M176.154 125.64C176.392 126.471 177.076 127.036 177.69 126.827C178.019 126.674 178.276 126.399 178.407 126.061C178.537 125.722 178.53 125.346 178.388 125.012C178.158 124.181 177.466 123.616 176.852 123.818C176.521 123.971 176.263 124.246 176.132 124.587C176.002 124.927 176.01 125.305 176.154 125.64Z" fill="white"/>
<path d="M157.406 130.617C157.65 131.482 158.362 132.013 158.997 131.852C159.332 131.686 159.591 131.399 159.72 131.048C159.85 130.698 159.841 130.312 159.695 129.968C159.451 129.109 158.739 128.572 158.104 128.739C157.769 128.903 157.509 129.189 157.379 129.538C157.249 129.888 157.259 130.274 157.406 130.617Z" fill="#263238"/>
<path opacity="0.2" d="M157.594 130.526C157.741 131.049 158.174 131.385 158.558 131.273C158.761 131.174 158.92 131.002 159 130.79C159.081 130.578 159.077 130.344 158.99 130.135C158.837 129.612 158.411 129.284 158.027 129.388C157.823 129.487 157.665 129.66 157.585 129.871C157.504 130.083 157.508 130.317 157.594 130.526Z" fill="white"/>
<path d="M147.138 125.361L159.004 127.148L178.374 121.647L181.054 120.894L182.499 118.918L181.494 115.358L179.191 114.318L176.796 115.016L173.767 111.806C172.895 111.017 170.507 111.017 169.293 111.359L164.728 113.369C162.236 114.765 161.161 115.324 159.472 116.266C158.544 116.999 157.79 118.904 157.001 120.607L146.643 123.72L147.138 125.361Z" fill="#FCA43C"/>
<path d="M175.966 114.989C172.849 115.535 169.805 116.434 166.892 117.669C166.382 116.433 166.103 114.779 166.892 113.739C167.883 112.483 170.912 111.059 173.076 111.889C174.046 112.203 175.003 113.718 175.966 114.989Z" fill="white"/>
<path d="M165.426 114.06C164.309 114.898 164.379 117.229 164.728 118.548L160.952 119.623C160.791 118.053 161.266 116.182 162.592 115.296L165.426 114.06Z" fill="white"/>
<path d="M161.58 115.659L159.695 116.538C158.53 117.362 158.083 118.932 157.678 120.545L159.912 119.909C159.983 118.347 160.57 116.852 161.58 115.659Z" fill="white"/>
<path d="M146.35 120.761L148.353 123.218L147.425 123.986L145.575 121.047L146.35 120.761Z" fill="#FCA43C"/>
<path d="M147.92 124.146L147.222 123.937L148.123 120.963C148.171 120.81 148.332 120.726 148.555 120.789C148.779 120.852 148.855 120.998 148.814 121.173L147.92 124.146Z" fill="#263238"/>
<path opacity="0.3" d="M147.92 124.146L147.222 123.937L148.123 120.963C148.171 120.81 148.332 120.726 148.555 120.789C148.779 120.852 148.855 120.998 148.814 121.173L147.92 124.146Z" fill="white"/>
<path d="M146.929 124.942L147.627 125.151L146.727 128.132C146.678 128.285 146.517 128.362 146.301 128.306C146.084 128.251 146.001 128.09 146.043 127.922L146.929 124.942Z" fill="#263238"/>
<path opacity="0.3" d="M146.929 124.942L147.627 125.151L146.727 128.132C146.678 128.285 146.517 128.362 146.301 128.306C146.084 128.251 146.001 128.09 146.043 127.922L146.929 124.942Z" fill="white"/>
<path d="M148.011 124.335C148.137 124.795 147.976 125.242 147.648 125.333C147.32 125.424 146.95 125.13 146.817 124.677C146.685 124.223 146.817 123.769 147.18 123.679C147.543 123.588 147.878 123.881 148.011 124.335Z" fill="#263238"/>
<path opacity="0.1" d="M148.011 124.335C148.137 124.795 147.976 125.242 147.648 125.333C147.32 125.424 146.95 125.13 146.817 124.677C146.685 124.223 146.817 123.769 147.18 123.679C147.543 123.588 147.878 123.881 148.011 124.335Z" fill="white"/>
<path d="M183.867 116.475C183.672 115.777 181.773 113.313 178.13 114.486L174.64 115.484C172.706 116.022 172.93 116.978 173.327 118.199L174.235 121.417C174.472 122.248 175.631 122.429 176.762 122.115L180.084 121.243C183.274 120.258 184.349 118.185 183.986 116.908L183.867 116.475Z" fill="#FCA43C"/>
<path opacity="0.4" d="M183.867 116.475C183.672 115.777 181.773 113.313 178.13 114.486L174.64 115.484C172.706 116.022 172.93 116.978 173.327 118.199L174.235 121.417C174.472 122.248 175.631 122.429 176.762 122.115L180.084 121.243C183.274 120.258 184.349 118.185 183.986 116.908L183.867 116.475Z" fill="white"/>
<path d="M177.187 125.012L177.529 126.226L174.709 126.17L173.32 123.092L174.011 122.897L175.317 125.27L177.187 125.012Z" fill="#263238"/>
<path opacity="0.1" d="M177.187 125.012L177.529 126.226L174.709 126.17L173.32 123.092L174.011 122.897L175.317 125.27L177.187 125.012Z" fill="white"/>
<path d="M158.013 129.954L158.223 130.687L161.399 128.565L161.14 126.547L160.721 126.666L160.805 128.292L158.013 129.954Z" fill="#263238"/>
<path opacity="0.1" d="M158.013 129.954L158.223 130.687L161.399 128.565L161.14 126.547L160.721 126.666L160.805 128.292L158.013 129.954Z" fill="white"/>
</svg>
