<svg version="1.2" xmlns="http://www.w3.org/2000/svg" viewBox="320 127.99999999999997 299 347.0000000000001" width="299" height="349">
	<title>KHATWTNTK-logo</title>
	<style>
		.s0 { fill: #ffa73f } 
		.s1 { fill: #0081af } 
		.s2 { fill: #1c8a8a } 
	</style>
	<g id="Layer 1">
		<g id="LOGO">
			<g id="&lt;Group&gt;">
				<path id="&lt;Path&gt;" class="s0" d="m460 282c1.2 1.1 2.4 1.9 3.5 2.9 0.8 0.7 1.5 1.3 2.2 2 3.5 3.2 3.5 5.2 0.3 8.8-1.7 1.9-1.5 3.7 0.8 6.3 4.2 5.1 9.7 8.6 15.3 11.9q2.5 1.5 5.1 2.8c0.6 0.2 1 0.4 0.9 1-0.1 0.8-0.7 0.7-1.2 0.7-4.3 0.2-8.5 1.1-12.8 0.6-2.1-0.2-4.2 0-6.3 0-2.2 0-3.9 0.8-4.9 2.9-1 2.1 0.3 3.6 1.4 5.1 1.1 1.6 2.3 3.1 3.7 4.4 4.4 4.1 4.5 9.3 3.5 14.6-0.7 4.4-1.6 8.6-2.1 13.1-0.6 5.3-0.3 10.7 3.4 15.3 2.5 1.3 4.9 3.5 8 3.1 4.2-0.7 8.5 0.4 12.7-0.4 17.3-1.6 34.6-1.9 52-0.1 9.4 1.1 18.6 2.9 27.6 5.8 1.4 0.5 2 0.1 2.9-0.7 9.7-9.8 18-20.7 24.6-32.6 4.5-8.1 8.3-16.5 11.2-25.3 4.1-12.1 6.5-24.4 7.3-37.1 0.8-10.8 0.4-21.4-1-32-1.2-8.3-3.1-16.6-5.7-24.5q-6.3-19.2-17.5-36.2c-9.7-14.6-21.6-27.1-35.6-37.6-4.5-3.5-9.2-6.5-14.1-9.4-1.9-1-4.1-1.6-5.7-3.2-5.2-3.3-9.5-2.2-13.4 0.2-9.8-0.6-21.9-2.9-25.8-11.2 0 0-0.1 19.3 13.9 23.9-1.7 3.9-4.6 7-6.9 10.4-5.7 8.5-9.2 18-11 28-1.7 8.6-1.7 17.4-2.4 26.1-0.7 7-1.1 14-4.5 20.5-2.4 4.4-6 7.4-10.4 9.9-7.1 4.1-14.2 8.2-19.8 14.3-5.3 5.8-5 10.5 0.8 15.7z"/>
				<path id="&lt;Compound Path&gt;" class="s1" d="m325.4 239.4q0 0.6 0 1.3v0.1l0.3-1.6q-0.1 0.1-0.3 0.2z"/>
				<path id="&lt;Compound Path&gt;" class="s2" d="m446.9 381.3c-6.4-1.6-13.1-1.6-19.4-3.8-7.3-2.4-11-7.7-10.2-15.3 0.5-5.7 2.4-11.1 4.1-16.5 1.1-4.2 1-7.8-2.1-11.2-1.6-1.7-3-3.5-4-5.6-1.7-3.2-0.4-6.2 3.2-7.1 6.2-1.6 12.5-1.7 18.9-2 1.5-0.1 3.8 0.2 4.2-1.3 0.3-1.5-2.1-1.6-3.2-2.3-6.2-3.4-12.8-6-18.9-9.9-0.9-0.6-2-1.3-2.9-2-1.5-1.4-2.4-2.7-0.5-4.9 2.4-2.8 0.9-5.8-0.9-8.2-2.6-4.1-6-7.5-9.4-10.7-3.5-3.4-3.7-6.2-0.3-9.9 3.6-3.9 8.2-6.3 12.6-9.1 4.4-2.7 9.2-5 13.4-8 5.9-4.2 8.4-10.2 9.6-17.1 1.5-9.7 0.7-19.5 0.9-29.2 0.5-14.2 6.2-26.2 14.5-37.2 3.4-4.4 7-8.4 10.9-12.2 0.9-0.7 1.2-1.4 1-2.5-2.8-12.4 3.4-20.1 14-24.4 1.9-0.8 3.8-1.8 6.5-1.7-1.5-1.1-2.7-1.2-3.9-1.3-12.7-1.1-25.3-0.8-37.9 1.1-8.2 1.3-16.3 3.2-24.2 5.9q-20 6.8-37.6 18.8-19.7 13.7-34.1 32.9c-7.5 9.9-13.8 20.6-18.6 32.1q-4.2 10-6.9 20.5-0.1 0.7-0.3 1.5c-4 16.5-5.1 33.3-3.8 50.5 0.7 8.5 2.4 17 4.6 25.2q4 14.1 10.6 27.3c6.7 13.1 15.1 25 25.2 35.7q17.9 18.9 41.2 30.7c11 5.4 22.4 9.7 34.4 12.1 2.2 0.4 4.3 1.2 6.5 1.4 1.6 0.1 1.8 1.3 1.8 2.6q0.2 19.7 0.5 39.3c0.1 3.6 0.2 7.3 0.4 11.5 4.9-5.8 9.3-11.2 13.8-16.5 5.6-6.4 11.3-12.9 15.9-20.3 8.8-14.3 8.3-27-1.7-40.8-7-9.5-16.5-15.1-27.9-18.1zm-71.1-17c-0.5 0.9-1.6 1.4-2.6 1.4-0.9 0-1.8-0.2-2.5-0.7q-0.9-0.8-1.8-1.4c-1-0.8-2.1-1.6-3.1-2.5-6.1-5.2-11.1-11.4-15-18.5-2.9-5.3-5-11.1-6.3-17-0.8-4.1-1.3-7.5-1.3-10.9-0.1-2.8 0-5.7 0.4-9.7 0.2-3.5 0.9-7.4 2.3-11.9 1.1-3.5 2.5-6.8 4.1-10 2.8-5.4 5.5-9.6 8.8-13.3 0.9-0.9 2.1-1.9 3.5-2q0.9 0 1.7 0.5 1.5 1 1.6 2.6c0.2 1.2-0.3 2.4-1.2 3.5-2.3 2.7-4.5 5.7-6.4 8.9-1.1 1.9-2.1 3.8-2.8 5.6q-1 2-1.7 4.3c-1.2 3.4-2.1 6.9-2.6 10.1q-0.3 1.7-0.6 3.5c-0.2 1.9-0.1 3.9-0.1 6v0.8q0.1 1.2 0.1 2.5c0.2 1.6 0.4 3.1 0.6 4.5 0.3 2.2 0.7 4.4 1.5 6.9 1 3.8 2.5 7.3 4.3 10.9 3.1 5.9 6.7 10.8 11 14.7 1.8 1.8 4 3.5 5.9 5q0.7 0.6 1.5 1.2c1.6 1.4 1.9 3.4 0.7 5zm9.7-11.7q-0.9 1.3-2.6 1.3c-0.8 0.1-1.7-0.2-2.5-0.8-3.7-2.4-7.1-5.5-10-8.9-3.9-4.3-6.8-9.4-8.9-14.7-1.3-3.3-2.1-6.6-2.5-9.9-0.6-3.5-0.7-7.1-0.5-11q0.3-6.5 2.6-12.9c1.7-4.7 3.9-8.8 6.8-12.6 1.3-1.8 2.8-3.5 4.3-5.2 0.7-0.7 1.6-1.2 2.7-1.3 0.9 0 1.9 0.5 2.6 1.1 1.4 1.5 1.3 3.7-0.4 5.3-5.2 5.7-8.8 12.2-10.5 19.6-0.7 2.9-1.1 6-1.1 9.1-0.1 3.8 0.6 7.4 1.3 10.4 0.5 2.8 1.6 5.7 3.1 8.8 1.4 2.8 3.2 5.3 5.1 7.8q4 4.9 9.7 8.7c0.8 0.6 1.4 1.4 1.6 2.4 0.1 1-0.1 1.9-0.8 2.8zm10.1-12.9c-0.5 1.6-1.7 2.7-3.3 2.7h-0.1c-1.1 0-1.5-0.2-3.3-1.3-5.4-3.6-9.5-8.3-12.3-14.1-1.7-3.4-2.7-7-3.2-10.9-0.5-4.4-0.1-8.8 1-13.1 0.9-3.5 2.3-6.7 4.2-9.6 1.9-2.8 3.9-5.3 6.3-7.2 0.5-0.5 1.3-0.7 2.1-0.7 1.1-0.2 2.1 0.3 2.7 0.9 1.4 1.5 1.3 3.7-0.3 5.3l-0.5 0.5c-0.8 0.8-1.5 1.5-2.2 2.3-4.1 4.9-6.2 10.6-6.3 17q-0.2 5.5 1.9 10.6c1.6 4.3 4.2 7.9 7.6 10.8 1 0.8 2.1 1.5 3.2 2.3q0.4 0.2 0.8 0.5c1.4 1 2.1 2.6 1.7 4zm9.1-10.8c-0.6 1.3-1.8 2.2-3.2 2.3q-0.7 0-1.3-0.2c-0.6-0.2-1.2-0.5-1.9-0.9-6.7-3.9-10.4-9.8-10.8-17.6v-0.1q0-0.5 0-0.9c0.1-0.8 0.1-1.7 0.2-2.6 0.2-1.4 0.5-2.6 0.8-3.5 1.8-4.7 4.7-8.2 8.8-10.8 0.6-0.3 1.3-0.5 2-0.6 1.3 0 2.5 0.6 3.1 1.8 1.1 1.6 0.5 3.6-1.4 4.8-5 3.3-7.3 8.4-6.1 14.1 0.9 4.4 3.4 7.7 7.8 9.6 1.8 0.7 2.6 2.8 2 4.6z"/>
			</g>
		</g>
	</g>
</svg>